<?xml version="1.0" encoding="UTF-8"?>
<svg version="1.1" xmlns="http://www.w3.org/2000/svg" width="500" height="500">
<path d="M0 0 C1.54211673 -0.00270437 3.08423178 -0.00659456 4.62634277 -0.01159668 C7.83683731 -0.01744751 11.04688252 -0.00907359 14.25732422 0.00976562 C18.33536312 0.03255308 22.41234839 0.01940591 26.49034882 -0.00452423 C29.66835206 -0.01910319 32.84611288 -0.01432152 36.02412415 -0.00401306 C37.52614981 -0.001379 39.02819881 -0.00449592 40.53019714 -0.01393127 C52.12909296 -0.07083637 63.88194141 0.93832114 73.46875 8.15625 C74.68498047 9.04183594 74.68498047 9.04183594 75.92578125 9.9453125 C76.49683594 10.46867188 77.06789062 10.99203125 77.65625 11.53125 C77.65625 12.19125 77.65625 12.85125 77.65625 13.53125 C78.31625 13.53125 78.97625 13.53125 79.65625 13.53125 C81.05859375 15.3671875 81.05859375 15.3671875 82.59375 17.90625 C83.34978516 19.12441406 83.34978516 19.12441406 84.12109375 20.3671875 C89.11758476 30.66529875 89.09981323 40.69908092 89.0546875 51.91015625 C89.05671232 53.69034443 89.05962715 55.4705318 89.06338501 57.25071716 C89.06778801 60.96662355 89.06144216 64.68231241 89.04736328 68.39819336 C89.03026007 73.14127927 89.04013262 77.88385621 89.05808067 82.62692356 C89.06896277 86.29798665 89.06545215 89.96893065 89.0576973 93.63999748 C89.05570816 95.38815307 89.05810893 97.13631976 89.06513596 98.88446236 C89.13392353 120.79894755 89.13392353 120.79894755 81.3828125 129.02734375 C75.81013128 133.88137603 69.89846501 135.19596227 62.65625 135.53125 C62.65625 137.84125 62.65625 140.15125 62.65625 142.53125 C64.20119141 142.58732422 64.20119141 142.58732422 65.77734375 142.64453125 C88.63426081 143.63583729 110.28945189 146.95209647 126.65625 164.53125 C126.65625 165.19125 126.65625 165.85125 126.65625 166.53125 C127.31625 166.53125 127.97625 166.53125 128.65625 166.53125 C130.26606172 168.43644002 131.75128268 170.33380662 133.21875 172.34375 C133.63060547 172.89095703 134.04246094 173.43816406 134.46679688 174.00195312 C136.31774019 176.50118101 137.66612428 178.56087285 138.65625 181.53125 C139.605 180.70625 140.55375 179.88125 141.53125 179.03125 C144.40625 176.53125 144.40625 176.53125 146.65625 176.53125 C146.65625 175.87125 146.65625 175.21125 146.65625 174.53125 C147.31625 174.53125 147.97625 174.53125 148.65625 174.53125 C148.65625 173.87125 148.65625 173.21125 148.65625 172.53125 C149.31625 172.53125 149.97625 172.53125 150.65625 172.53125 C150.65625 171.87125 150.65625 171.21125 150.65625 170.53125 C152.265625 168.875 152.265625 168.875 154.40625 167.03125 C155.10234375 166.4228125 155.7984375 165.814375 156.515625 165.1875 C158.50085792 163.65148037 160.37497045 162.5588534 162.65625 161.53125 C162.65625 160.87125 162.65625 160.21125 162.65625 159.53125 C167.12683824 155.53125 167.12683824 155.53125 169.65625 155.53125 C169.65625 154.87125 169.65625 154.21125 169.65625 153.53125 C170.31625 153.53125 170.97625 153.53125 171.65625 153.53125 C171.65625 152.87125 171.65625 152.21125 171.65625 151.53125 C173.22911684 150.11686594 174.86764996 148.77520599 176.53125 147.46875 C180.42358774 144.35688101 184.2161183 141.19325416 187.90625 137.84375 C188.71578125 137.10898437 189.5253125 136.37421875 190.359375 135.6171875 C191.11734375 134.92882812 191.8753125 134.24046875 192.65625 133.53125 C199.32291667 127.53125 199.32291667 127.53125 201.65625 127.53125 C201.65625 126.87125 201.65625 126.21125 201.65625 125.53125 C202.31625 125.53125 202.97625 125.53125 203.65625 125.53125 C203.65625 124.87125 203.65625 124.21125 203.65625 123.53125 C211.15387473 117.03539559 219.70538197 113.06433222 229.65625 112.53125 C235.79843205 113.23321366 240.47664491 115.22511909 245.65625 118.53125 C245.65625 119.19125 245.65625 119.85125 245.65625 120.53125 C246.31625 120.53125 246.97625 120.53125 247.65625 120.53125 C248.44900148 121.9473099 249.24040312 123.36412553 250.03125 124.78125 C250.47210938 125.57015625 250.91296875 126.3590625 251.3671875 127.171875 C252.51372823 129.27039197 253.60274552 131.3848577 254.65625 133.53125 C255.9246875 133.38816406 255.9246875 133.38816406 257.21875 133.2421875 C266.95967778 132.29023319 273.59782043 132.34687382 281.65625 138.53125 C283.53125 140.15625 283.53125 140.15625 284.65625 141.53125 C284.65625 142.19125 284.65625 142.85125 284.65625 143.53125 C285.31625 143.53125 285.97625 143.53125 286.65625 143.53125 C291.31872485 151.35217555 292.67626387 159.32930741 290.96875 168.34375 C288.1578056 178.5586852 280.74300743 186.33881718 271.65625 191.53125 C270.99625 191.53125 270.33625 191.53125 269.65625 191.53125 C269.65625 192.19125 269.65625 192.85125 269.65625 193.53125 C268.99625 193.53125 268.33625 193.53125 267.65625 193.53125 C267.65625 194.19125 267.65625 194.85125 267.65625 195.53125 C265.77734375 197.0546875 265.77734375 197.0546875 263.09375 198.90625 C257.48144053 202.86616745 252.1531215 207.10160519 246.87280273 211.49365234 C243.59711632 214.17054799 240.75674193 216.2371784 236.65625 217.53125 C236.65625 218.19125 236.65625 218.85125 236.65625 219.53125 C231.24448529 223.53125 231.24448529 223.53125 228.65625 223.53125 C228.65625 224.19125 228.65625 224.85125 228.65625 225.53125 C226.5390625 227.2578125 226.5390625 227.2578125 223.78125 229.15625 C222.87632812 229.78789062 221.97140625 230.41953125 221.0390625 231.0703125 C218.65625 232.53125 218.65625 232.53125 216.65625 232.53125 C216.65625 233.19125 216.65625 233.85125 216.65625 234.53125 C211.24448529 238.53125 211.24448529 238.53125 208.65625 238.53125 C208.65625 239.19125 208.65625 239.85125 208.65625 240.53125 C206.7273836 242.01569107 204.80614543 243.3766812 202.78125 244.71875 C201.58045036 245.52953515 200.37993222 246.34073736 199.1796875 247.15234375 C198.58124023 247.55437012 197.98279297 247.95639648 197.36621094 248.37060547 C195.01613263 249.96573286 192.71370566 251.62526841 190.40625 253.28125 C177.14950631 262.53113225 162.95175268 268.59139202 146.70678711 269.15454102 C145.75273704 269.19235215 144.79868696 269.23016329 143.81572628 269.26912022 C133.59726659 269.63487422 123.3813965 269.63092739 113.15789986 269.57584953 C109.74531246 269.55806025 106.33277423 269.54803887 102.92015076 269.53993225 C93.23586403 269.51581019 83.55164521 269.47986669 73.86743164 269.43530273 C67.89631005 269.40835642 61.92522508 269.39142706 55.95405388 269.38043404 C53.7028663 269.37428389 51.45168536 269.36435546 49.20053291 269.35035515 C23.85340922 268.64594281 23.85340922 268.64594281 0.65625 277.53125 C-0.33375 277.53125 -1.32375 277.53125 -2.34375 277.53125 C-2.34375 278.19125 -2.34375 278.85125 -2.34375 279.53125 C-3.00375 279.53125 -3.66375 279.53125 -4.34375 279.53125 C-4.34375 280.19125 -4.34375 280.85125 -4.34375 281.53125 C-9.81994048 286.53125 -9.81994048 286.53125 -12.34375 286.53125 C-12.60800781 287.11519531 -12.87226563 287.69914062 -13.14453125 288.30078125 C-15.16947884 292.06705185 -17.95944257 294.93684128 -21.34375 297.53125 C-25.37055356 298.60506428 -27.40484524 298.84421825 -31.34375 297.53125 C-31.34375 296.87125 -31.34375 296.21125 -31.34375 295.53125 C-32.00375 295.53125 -32.66375 295.53125 -33.34375 295.53125 C-34.41108668 287.1111495 -34.41108668 287.1111495 -31.9609375 283.484375 C-30.16105799 281.72345392 -28.29767613 280.1182997 -26.34375 278.53125 C-25.580625 277.7475 -24.8175 276.96375 -24.03125 276.15625 C-6.4806173 259.01377155 10.15989817 252.18786699 34.74584961 252.27587891 C36.61910164 252.27044823 36.61910164 252.27044823 38.53019714 252.26490784 C41.22126532 252.258055 43.91208166 252.25460796 46.60313225 252.25685501 C50.87135814 252.25971941 55.1394227 252.24522149 59.40760803 252.22787476 C71.53595598 252.18114129 83.66429042 252.15691711 95.79272461 252.15039062 C102.51085789 252.14662324 109.22880565 252.12846675 115.94685942 252.09529626 C120.17669828 252.07525489 124.40605313 252.0726251 128.63591945 252.08357644 C131.90310443 252.08682861 135.17013357 252.06402425 138.43725586 252.04541016 C140.16226318 252.05766884 140.16226318 252.05766884 141.92211914 252.07017517 C153.22529581 251.95632948 162.71681907 248.685029 172.65625 243.53125 C173.64625 243.53125 174.63625 243.53125 175.65625 243.53125 C175.65625 242.87125 175.65625 242.21125 175.65625 241.53125 C177.63625 240.87125 179.61625 240.21125 181.65625 239.53125 C181.65625 238.87125 181.65625 238.21125 181.65625 237.53125 C183.7931277 235.98999625 185.93286345 234.56347057 188.15625 233.15625 C194.85733007 228.82422223 201.24613167 224.18115592 207.55078125 219.29150391 C212.45084283 215.53125 212.45084283 215.53125 214.65625 215.53125 C214.65625 214.87125 214.65625 214.21125 214.65625 213.53125 C220.06801471 209.53125 220.06801471 209.53125 222.65625 209.53125 C222.65625 208.87125 222.65625 208.21125 222.65625 207.53125 C224.7734375 205.8046875 224.7734375 205.8046875 227.53125 203.90625 C228.43617188 203.27460938 229.34109375 202.64296875 230.2734375 201.9921875 C232.65625 200.53125 232.65625 200.53125 234.65625 200.53125 C234.65625 199.87125 234.65625 199.21125 234.65625 198.53125 C240.06801471 194.53125 240.06801471 194.53125 242.65625 194.53125 C242.65625 193.87125 242.65625 193.21125 242.65625 192.53125 C244.3359375 191.0234375 244.3359375 191.0234375 246.53125 189.40625 C247.25054687 188.86742187 247.96984375 188.32859375 248.7109375 187.7734375 C250.65625 186.53125 250.65625 186.53125 252.65625 186.53125 C252.65625 185.87125 252.65625 185.21125 252.65625 184.53125 C254.7459727 182.73585444 256.83467082 181.06063558 259.03125 179.40625 C259.93617188 178.70435547 259.93617188 178.70435547 260.859375 177.98828125 C265.39483874 174.53125 265.39483874 174.53125 267.65625 174.53125 C267.65625 173.87125 267.65625 173.21125 267.65625 172.53125 C268.31625 172.53125 268.97625 172.53125 269.65625 172.53125 C269.65625 171.87125 269.65625 171.21125 269.65625 170.53125 C270.96825404 169.17692325 272.30256404 167.84391518 273.65625 166.53125 C275.27054923 163.30265153 275.25195657 160.02131347 274.65625 156.53125 C272.92022895 153.50616855 270.82044863 151.11334931 267.65625 149.53125 C261.0206979 148.40179432 257.38610633 151.26387401 252.01171875 155 C249.65625 156.53125 249.65625 156.53125 247.65625 156.53125 C247.65625 157.19125 247.65625 157.85125 247.65625 158.53125 C245.734375 159.984375 245.734375 159.984375 242.90625 161.78125 C237.06438373 165.57431009 231.34979006 169.51914174 225.65625 173.53125 C219.25194758 178.03447955 212.82266613 182.47524763 206.28125 186.77734375 C202.6652416 189.19339698 199.13799465 191.72894967 195.6171875 194.28125 C193.65625 195.53125 193.65625 195.53125 191.65625 195.53125 C191.65625 196.19125 191.65625 196.85125 191.65625 197.53125 C189.67625 198.19125 187.69625 198.85125 185.65625 199.53125 C185.65625 200.19125 185.65625 200.85125 185.65625 201.53125 C183.70703125 202.94140625 183.70703125 202.94140625 180.96875 204.59375 C175.30845802 208.08830121 169.8577483 211.80640563 164.40625 215.61328125 C159.11650491 219.30257789 155.82183191 220.76573755 149.28125 220.28125 C146.54129722 219.71436322 144.34702975 219.09664407 141.78125 218.09375 C127.22819357 212.44341559 110.88195162 213.47462814 95.51171875 213.35546875 C94.14981965 213.34351197 92.78792186 213.33140568 91.42602539 213.31915283 C82.98008646 213.24527656 82.98008646 213.24527656 74.53393555 213.20532227 C71.04401304 213.19523802 67.55470614 213.16595878 64.06502724 213.12400246 C62.1147357 213.10584595 60.16428683 213.10833 58.21391296 213.11125183 C57.03110245 213.09476089 55.84829193 213.07826996 54.62963867 213.0612793 C53.59361008 213.05541306 52.55758148 213.04954681 51.49015808 213.04350281 C47.93202216 212.4003397 46.23226146 211.01913747 43.65625 208.53125 C43.02734375 206.53125 43.02734375 206.53125 43.09375 204.53125 C43.09246094 203.87125 43.09117187 203.21125 43.08984375 202.53125 C43.93621956 199.54266784 45.20053671 198.43309069 47.65625 196.53125 C50.42274871 196.15703693 52.78459634 196.02370424 55.54589844 196.07714844 C56.33652176 196.07656433 57.12714508 196.07598022 57.94172668 196.07537842 C60.55014233 196.07816101 63.15740947 196.10926017 65.765625 196.140625 C67.57594173 196.14808679 69.38626654 196.15378002 71.19659424 196.15777588 C75.95776735 196.17303712 80.71845116 196.21232309 85.47943115 196.2565918 C90.33908469 196.29753397 95.1988174 196.31578464 100.05859375 196.3359375 C109.59136063 196.37881691 119.1237646 196.44707415 128.65625 196.53125 C128.2953125 195.97695313 127.934375 195.42265625 127.5625 194.8515625 C127.0984375 194.12710938 126.634375 193.40265625 126.15625 192.65625 C125.6921875 191.93695313 125.228125 191.21765625 124.75 190.4765625 C123.65625 188.53125 123.65625 188.53125 123.65625 186.53125 C122.99625 186.53125 122.33625 186.53125 121.65625 186.53125 C117.65625 181.11948529 117.65625 181.11948529 117.65625 178.53125 C116.99625 178.53125 116.33625 178.53125 115.65625 178.53125 C114.975625 177.665 114.295 176.79875 113.59375 175.90625 C106.1134174 166.57238366 94.21397122 162.53837356 82.70214844 161.18359375 C79.39688315 160.88561985 76.09209567 160.63400244 72.78125 160.40625 C70.99050049 160.2810498 70.99050049 160.2810498 69.16357422 160.15332031 C28.09083431 157.4478972 -12.60830792 162.85493176 -44.8046875 190.65625 C-54.71804641 198.66308195 -54.71804641 198.66308195 -62.34375 208.53125 C-63.00375 208.53125 -63.66375 208.53125 -64.34375 208.53125 C-64.6325 209.129375 -64.92125 209.7275 -65.21875 210.34375 C-66.34375 212.53125 -66.34375 212.53125 -68.34375 215.53125 C-69.00375 215.53125 -69.66375 215.53125 -70.34375 215.53125 C-70.653125 216.15 -70.9625 216.76875 -71.28125 217.40625 C-71.96875 218.78125 -72.65625 220.15625 -73.34375 221.53125 C-74.00375 221.53125 -74.66375 221.53125 -75.34375 221.53125 C-75.34375 222.19125 -75.34375 222.85125 -75.34375 223.53125 C-79.00680234 224.28051071 -81.76730152 224.7692514 -85.34375 223.53125 C-85.34375 222.87125 -85.34375 222.21125 -85.34375 221.53125 C-86.00375 221.53125 -86.66375 221.53125 -87.34375 221.53125 C-88.72440353 216.53965645 -88.47647883 214.15662814 -85.90625 209.59375 C-85.06981467 208.22855991 -84.22131515 206.8703719 -83.34375 205.53125 C-82.68375 205.53125 -82.02375 205.53125 -81.34375 205.53125 C-81.09882812 204.98082031 -80.85390625 204.43039062 -80.6015625 203.86328125 C-76.67875144 196.59024336 -70.58486201 190.38350941 -64.25390625 185.16015625 C-62.25165385 183.45271402 -60.46862616 181.62507222 -58.65625 179.71875 C-56.09176383 177.09544534 -53.96006715 175.51751831 -50.34375 174.53125 C-50.34375 173.87125 -50.34375 173.21125 -50.34375 172.53125 C-44.93198529 168.53125 -44.93198529 168.53125 -42.34375 168.53125 C-42.34375 167.87125 -42.34375 167.21125 -42.34375 166.53125 C-39.5556478 165.0245528 -36.76271042 163.52705196 -33.96875 162.03125 C-33.1746875 161.60199219 -32.380625 161.17273438 -31.5625 160.73046875 C-30.80195312 160.32441406 -30.04140625 159.91835938 -29.2578125 159.5 C-28.5560791 159.12294922 -27.8543457 158.74589844 -27.13134766 158.35742188 C-25.34375 157.53125 -25.34375 157.53125 -23.34375 157.53125 C-23.34375 150.27125 -23.34375 143.01125 -23.34375 135.53125 C-26.31375 135.20125 -29.28375 134.87125 -32.34375 134.53125 C-36.05779145 133.15346043 -39.05306265 131.72504157 -42.34375 129.53125 C-42.34375 128.87125 -42.34375 128.21125 -42.34375 127.53125 C-43.00375 127.53125 -43.66375 127.53125 -44.34375 127.53125 C-49.40487298 121.04668618 -50.6466635 114.61702366 -50.6184082 106.55151367 C-50.62351913 105.78626877 -50.62863007 105.02102386 -50.63389587 104.23258972 C-50.64771134 101.72138483 -50.64684091 99.21045696 -50.64453125 96.69921875 C-50.64842319 94.93955892 -50.65275889 93.17990002 -50.65751648 91.42024231 C-50.66496186 87.73773144 -50.66470008 84.05531646 -50.65942383 80.37280273 C-50.65363786 75.67571255 -50.67054724 70.9790178 -50.6937685 66.28199291 C-50.70857032 62.6486434 -50.7093687 59.01538765 -50.70625877 55.38201332 C-50.70676896 53.65142345 -50.7119493 51.92082791 -50.72207069 50.19026756 C-50.7787286 39.14679514 -50.47384363 29.15465014 -44.65625 19.40625 C-44.21925781 18.66117188 -43.78226563 17.91609375 -43.33203125 17.1484375 C-43.00589844 16.61476562 -42.67976563 16.08109375 -42.34375 15.53125 C-41.68375 15.53125 -41.02375 15.53125 -40.34375 15.53125 C-40.1375 14.974375 -39.93125 14.4175 -39.71875 13.84375 C-37.75151457 10.53521768 -35.45312286 8.8156872 -32.34375 6.53125 C-31.35375 6.53125 -30.36375 6.53125 -29.34375 6.53125 C-29.34375 5.87125 -29.34375 5.21125 -29.34375 4.53125 C-19.44439861 0.79549498 -10.4988882 -0.0659526 0 0 Z M-28.75 25.02734375 C-35.78247324 33.879265 -34.66959721 45.47263027 -34.6796875 56.16796875 C-34.6861251 57.77741104 -34.69285416 59.38685219 -34.69985962 60.99629211 C-34.71177732 64.3540824 -34.71554568 67.71177017 -34.71435547 71.06958008 C-34.71415151 75.36356303 -34.74155709 79.65688989 -34.77589989 83.95071697 C-34.79816361 87.26822414 -34.80219333 90.58557252 -34.80113602 93.90314674 C-34.80348878 95.48633925 -34.81229402 97.06953634 -34.82780075 98.65265465 C-34.84747042 100.86615357 -34.84162264 103.07822452 -34.82958984 105.29174805 C-34.83243988 106.54811569 -34.83528992 107.80448334 -34.83822632 109.09892273 C-34.23228206 113.30498668 -33.22592698 115.40613587 -30.34375 118.53125 C-26.7071769 119.50475778 -26.7071769 119.50475778 -23.34375 119.53125 C-23.33788376 118.57324997 -23.33201752 117.61524994 -23.32597351 116.6282196 C-23.26880574 107.60799212 -23.19607558 98.5880071 -23.10803509 89.56802654 C-23.06327259 84.93054116 -23.0240296 80.29314483 -22.99731445 75.65551758 C-22.9713399 71.18145961 -22.93097946 66.70774325 -22.88056374 62.23389626 C-22.86385531 60.52548274 -22.85236585 58.81701009 -22.84613609 57.10852623 C-22.83653792 54.71871345 -22.80853174 52.32978248 -22.77612305 49.94018555 C-22.77755814 49.23096451 -22.77899323 48.52174347 -22.7804718 47.79103088 C-22.72519006 44.91624695 -22.67780408 42.99367976 -20.96516418 40.62287903 C-18.68723722 39.08924794 -17.0940661 38.66221743 -14.34375 38.53125 C-11.59375 39.28125 -11.59375 39.28125 -9.34375 41.53125 C-8.02297996 48.42876573 -8.20120071 55.6813963 -8.23022461 62.68432617 C-8.23007858 63.63202881 -8.22993256 64.57973145 -8.2297821 65.55615234 C-8.23047107 68.64553224 -8.2382152 71.73484957 -8.24609375 74.82421875 C-8.24796155 76.98326077 -8.24938374 79.14230322 -8.25038147 81.30134583 C-8.25417816 86.9516011 -8.26398379 92.60183018 -8.27508545 98.2520752 C-8.28536114 104.03067674 -8.28989222 109.80928256 -8.29492188 115.58789062 C-8.30560891 126.90235518 -8.32265068 138.2168004 -8.34375 149.53125 C-6.91207563 149.37679585 -5.4805436 149.22102191 -4.04907227 149.06469727 C-2.85327293 148.93479149 -2.85327293 148.93479149 -1.63331604 148.80226135 C1.17498808 148.46984801 3.94086237 147.99619702 6.71875 147.46875 C8.12833984 147.20384766 8.12833984 147.20384766 9.56640625 146.93359375 C10.25605469 146.80082031 10.94570312 146.66804687 11.65625 146.53125 C11.67606934 145.66322754 11.69588867 144.79520508 11.71630859 143.90087891 C11.79434872 140.68398733 11.88103881 137.46747955 11.97363281 134.25097656 C12.01194327 132.85816428 12.04679259 131.46525235 12.078125 130.07226562 C12.12372907 128.07138692 12.18276623 126.07082854 12.2421875 124.0703125 C12.2736084 122.86584473 12.3050293 121.66137695 12.33740234 120.42041016 C12.65625 117.53125 12.65625 117.53125 14.65625 115.53125 C16.71484375 115.1953125 16.71484375 115.1953125 19.09375 115.15625 C20.26744141 115.11371094 20.26744141 115.11371094 21.46484375 115.0703125 C23.65625 115.53125 23.65625 115.53125 25.26123047 117.20751953 C26.96114217 120.03911903 27.08051544 121.88363071 27.16796875 125.171875 C27.20341797 126.24179687 27.23886719 127.31171875 27.27539062 128.4140625 C27.30922852 130.08082031 27.30922852 130.08082031 27.34375 131.78125 C27.37791016 132.90789062 27.41207031 134.03453125 27.44726562 135.1953125 C27.52967274 137.97360954 27.59463972 140.75241399 27.65625 143.53125 C33.92625 143.20125 40.19625 142.87125 46.65625 142.53125 C46.65625 109.20125 46.65625 75.87125 46.65625 41.53125 C47.31625 41.53125 47.97625 41.53125 48.65625 41.53125 C48.65625 40.87125 48.65625 40.21125 48.65625 39.53125 C54.94924363 38.32105892 54.94924363 38.32105892 57.96875 39.21875 C60.10181605 40.87780137 60.68024792 41.99465431 61.65625 44.53125 C61.86393289 47.01347595 61.96729014 49.38738195 61.97509766 51.87011719 C61.98514328 52.60221909 61.9951889 53.33432098 62.00553894 54.08860779 C62.0363613 56.50177241 62.05340324 58.91482613 62.0703125 61.328125 C62.08902493 63.00393629 62.1085984 64.67973818 62.1289978 66.35552979 C62.18031715 70.76131642 62.2199439 75.1671336 62.25714111 79.57305908 C62.297182 84.07091833 62.34827396 88.56865052 62.3984375 93.06640625 C62.49519443 101.88793158 62.57959997 110.70952865 62.65625 119.53125 C66.34057582 119.28004597 68.20175574 118.93511958 70.99890137 116.44953918 C73.04658157 112.84394717 73.219983 109.87536617 73.17382812 105.83862305 C73.1808374 105.08021118 73.18784668 104.32179932 73.19506836 103.54040527 C73.21262825 101.04088376 73.20102994 98.54250121 73.1875 96.04296875 C73.19019635 94.29807825 73.19407996 92.55318921 73.19909668 90.80830383 C73.2049897 87.15241176 73.1964384 83.49691097 73.17773438 79.84106445 C73.1549955 75.17045859 73.16803663 70.50077477 73.19202423 65.83020306 C73.20653104 62.22605034 73.20185308 58.62211336 73.19151306 55.01795387 C73.1888566 53.29688214 73.19207728 51.57579041 73.20143127 49.85474205 C73.21167216 47.43999357 73.19599073 45.0267015 73.17382812 42.61206055 C73.18192505 41.90996964 73.19002197 41.20787872 73.19836426 40.48451233 C73.0854198 33.79063695 70.56232391 28.86089589 66.40625 23.78125 C59.66678659 18.26714357 53.09130823 16.42471311 44.44824219 16.37011719 C42.60042145 16.35570587 42.60042145 16.35570587 40.715271 16.34100342 C39.3778909 16.33615405 38.04050863 16.33187556 36.703125 16.328125 C36.02389229 16.32529762 35.34465958 16.32247025 34.64484406 16.31955719 C31.04886999 16.30460111 27.45293566 16.29534961 23.85693359 16.29101562 C20.16409733 16.2855425 16.47163191 16.26152912 12.77891159 16.23304367 C9.920237 16.2143109 7.06164976 16.20920603 4.20291901 16.20767975 C2.18624078 16.20322575 0.16960952 16.18463155 -1.84698486 16.16571045 C-11.93402304 16.19003545 -21.46434599 17.2762174 -28.75 25.02734375 Z M213.65625 137.53125 C212.66625 138.19125 211.67625 138.85125 210.65625 139.53125 C210.65625 140.19125 210.65625 140.85125 210.65625 141.53125 C209.99625 141.53125 209.33625 141.53125 208.65625 141.53125 C208.65625 142.19125 208.65625 142.85125 208.65625 143.53125 C208.09421875 143.7890625 207.5321875 144.046875 206.953125 144.3125 C204.38920421 145.67294777 202.20398635 147.25913962 199.90625 149.03125 C199.10703125 149.6396875 198.3078125 150.248125 197.484375 150.875 C196.88109375 151.4215625 196.2778125 151.968125 195.65625 152.53125 C195.65625 153.19125 195.65625 153.85125 195.65625 154.53125 C194.99625 154.53125 194.33625 154.53125 193.65625 154.53125 C193.65625 155.19125 193.65625 155.85125 193.65625 156.53125 C192.84414063 156.86576172 192.84414063 156.86576172 192.015625 157.20703125 C188.90688086 158.95183963 186.47662912 161.28348055 183.90625 163.71875 C180.57020195 166.84739824 177.21327568 169.93598126 173.76171875 172.9375 C158.22047216 186.27450205 158.22047216 186.27450205 144.65625 201.53125 C144.65625 202.19125 144.65625 202.85125 144.65625 203.53125 C145.914375 203.551875 147.1725 203.5725 148.46875 203.59375 C149.17644531 203.60535156 149.88414062 203.61695313 150.61328125 203.62890625 C152.85930461 203.61388217 152.85930461 203.61388217 155.65625 202.53125 C155.65625 201.87125 155.65625 201.21125 155.65625 200.53125 C156.64625 200.53125 157.63625 200.53125 158.65625 200.53125 C158.65625 199.87125 158.65625 199.21125 158.65625 198.53125 C159.419375 198.2425 160.1825 197.95375 160.96875 197.65625 C163.80654308 196.56855987 163.80654308 196.56855987 166.65625 194.53125 C166.65625 193.87125 166.65625 193.21125 166.65625 192.53125 C167.36724854 192.27456543 168.07824707 192.01788086 168.81079102 191.75341797 C171.87410565 190.43767768 174.41990403 188.83952739 177.18359375 186.9765625 C178.22322266 186.27917969 179.26285156 185.58179688 180.33398438 184.86328125 C181.40970703 184.13496094 182.48542969 183.40664063 183.59375 182.65625 C184.66560547 181.93566406 185.73746094 181.21507812 186.84179688 180.47265625 C188.84639424 179.12467313 190.84971741 177.77479173 192.85131836 176.42236328 C194.88172709 175.05344118 196.93837157 173.72316901 199.01000977 172.41748047 C199.88326904 171.79502441 200.75652832 171.17256836 201.65625 170.53125 C201.65625 169.87125 201.65625 169.21125 201.65625 168.53125 C202.31625 168.304375 202.97625 168.0775 203.65625 167.84375 C207.54283628 166.1433685 211.29304817 164.13501916 214.65625 161.53125 C214.65625 160.87125 214.65625 160.21125 214.65625 159.53125 C216.63625 158.87125 218.61625 158.21125 220.65625 157.53125 C220.65625 156.87125 220.65625 156.21125 220.65625 155.53125 C221.36394531 155.28246094 222.07164062 155.03367187 222.80078125 154.77734375 C225.99349066 153.38408205 228.53537892 151.65117874 231.34375 149.59375 C232.29636719 148.90410156 233.24898438 148.21445312 234.23046875 147.50390625 C236.83341904 145.58569813 236.83341904 145.58569813 238.65625 142.53125 C238.98024838 138.02019567 238.44535894 134.51165808 235.59375 130.96875 C226.20196412 126.37276967 220.95902816 131.65599391 213.65625 137.53125 Z " fill="#26AAA9" transform="translate(150.34375,157.46875)"/>
<path d="M0 0 C5.36104836 -0.01192305 10.71975805 0.01689875 16.0802002 0.09960938 C17.71963636 0.12312103 19.35919575 0.13936786 20.9987793 0.14770508 C34.8393873 0.24152514 46.1502658 2.40555915 56.62493896 12.24084473 C58.13665771 14.01037598 58.13665771 14.01037598 58.13665771 16.01037598 C58.79665771 16.01037598 59.45665771 16.01037598 60.13665771 16.01037598 C61.57415771 17.95178223 61.57415771 17.95178223 63.13665771 20.57287598 C63.65228271 21.41979004 64.16790771 22.2667041 64.69915771 23.13928223 C67.82944498 29.39135055 68.43481563 35.18559442 68.42718506 42.03161621 C68.43390228 42.90736298 68.44061951 43.78310974 68.44754028 44.68539429 C68.46644648 47.5633114 68.47044042 50.44099449 68.47259521 53.31896973 C68.47902712 55.33004348 68.48575578 57.3411163 68.49276733 59.35218811 C68.50472081 63.56094533 68.50845003 67.76962057 68.50726318 71.97839355 C68.50705984 77.35955647 68.53438633 82.74019217 68.5688076 88.12123013 C68.5910894 92.27263281 68.59510036 96.42390872 68.59404373 100.57536507 C68.59639681 102.55881636 68.60520377 104.54227129 68.62070847 106.52566338 C68.64039893 109.30406128 68.63451899 112.08132333 68.62249756 114.85974121 C68.63373657 115.6708989 68.64497559 116.48205658 68.65655518 117.3177948 C68.58324781 124.01648615 66.61853903 129.22795434 62.13665771 134.25256348 C61.47665771 134.7913916 60.81665771 135.33021973 60.13665771 135.88537598 C59.47665771 136.43967285 58.81665771 136.99396973 58.13665771 137.56506348 C54.03205121 140.53128302 50.96695572 141.30405219 45.88665771 141.63537598 C44.80900146 141.7101416 43.73134521 141.78490723 42.62103271 141.86193848 C41.80118896 141.91092285 40.98134521 141.95990723 40.13665771 142.01037598 C40.15760498 142.59528809 40.17855225 143.1802002 40.20013428 143.78283691 C40.28345887 146.44184063 40.33536668 149.10056953 40.38665771 151.76037598 C40.42017334 152.6807666 40.45368896 153.60115723 40.48822021 154.54943848 C40.58673855 161.34720377 40.58673855 161.34720377 38.37103271 164.61193848 C36.07023119 166.05195062 34.8281721 166.60383479 32.13665771 166.63537598 C31.47665771 166.6688916 30.81665771 166.70240723 30.13665771 166.73693848 C27.54040986 165.79377031 26.44741227 164.26991367 24.99030876 161.97747993 C23.24259192 157.95014262 23.59315258 153.63041426 23.63494873 149.31091309 C23.62684425 147.7123069 23.62684425 147.7123069 23.61857605 146.08140564 C23.60609166 142.56655925 23.62257768 139.05253232 23.64056396 135.53771973 C23.64040898 133.09204567 23.63892014 130.64637135 23.63615417 128.20069885 C23.63477034 123.07879764 23.64732705 117.95717652 23.67010498 112.83532715 C23.69850414 106.26901364 23.69574779 99.70316496 23.68301487 93.13681698 C23.67606168 88.08822151 23.6838427 83.03973356 23.6962719 77.99115181 C23.7007888 75.56983413 23.70112112 73.14850493 23.6972065 70.7271862 C23.69429752 67.34469793 23.71078672 63.96285152 23.73260498 60.58044434 C23.72810333 59.57926575 23.72360168 58.57808716 23.71896362 57.54656982 C23.81098538 48.96412619 23.81098538 48.96412619 27.13665771 45.01037598 C30.22839523 43.46450722 32.73095324 43.71678076 36.13665771 44.01037598 C38.33483887 45.55401611 38.33483887 45.55401611 40.13665771 48.01037598 C40.51105562 50.68959418 40.64453291 52.95120331 40.59075928 55.62463379 C40.59134338 56.3859964 40.59192749 57.14735901 40.5925293 57.93179321 C40.58974744 60.44282983 40.55865223 62.95267232 40.52728271 65.46350098 C40.51982065 67.20655672 40.51412755 68.94962086 40.51013184 70.69268799 C40.49487272 75.27631873 40.45558871 79.859441 40.41131592 84.44287109 C40.37036909 89.12155275 40.35212209 93.80031672 40.33197021 98.47912598 C40.28909457 107.65643249 40.22084 116.83336192 40.13665771 126.01037598 C45.08665771 125.02037598 45.08665771 125.02037598 50.13665771 124.01037598 C51.15651914 119.93093027 51.29868469 116.24341929 51.31365967 112.07995605 C51.32351646 110.88644531 51.32351646 110.88644531 51.33357239 109.66882324 C51.35325951 107.03918353 51.36495881 104.40960085 51.37493896 101.77990723 C51.37901449 100.8791062 51.38309002 99.97830517 51.38728905 99.05020714 C51.40813196 94.28066616 51.42244041 89.51115378 51.43182373 84.74157715 C51.44287411 79.83013912 51.47726326 74.91915588 51.51699543 70.0078783 C51.54321759 66.21845187 51.55152061 62.42913281 51.55510521 58.63962364 C51.55995803 56.83003359 51.5715346 55.02044791 51.5901432 53.21094704 C51.70174665 41.63773415 51.70566608 31.831414 43.13665771 23.01037598 C34.343894 16.01613211 24.31952215 16.68518819 13.64837646 16.67443848 C12.139164 16.66799845 10.62995275 16.66126923 9.1207428 16.65426636 C5.96626902 16.64233704 2.81190439 16.63858103 -0.34259033 16.63977051 C-4.35700142 16.63997345 -8.37070265 16.61267792 -12.38494587 16.57822609 C-15.50020982 16.55583591 -18.61530619 16.55193664 -21.73064232 16.55298996 C-23.20922477 16.55065193 -24.68781314 16.54193153 -26.16631508 16.52632523 C-35.14742701 16.44039493 -42.58974705 17.31378744 -50.86334229 21.01037598 C-51.85334229 21.34037598 -52.84334229 21.67037598 -53.86334229 22.01037598 C-53.86334229 22.67037598 -53.86334229 23.33037598 -53.86334229 24.01037598 C-54.52334229 24.01037598 -55.18334229 24.01037598 -55.86334229 24.01037598 C-59.9828208 31.61556709 -62.01413187 38.92301967 -62.00860596 47.54528809 C-62.01196457 48.29861923 -62.01532318 49.05195038 -62.01878357 49.82810974 C-62.02827085 52.31466324 -62.03023548 54.80114926 -62.03131104 57.28771973 C-62.03452486 59.0188042 -62.03788903 60.74988839 -62.04139709 62.48097229 C-62.04738258 66.10821157 -62.04923756 69.73542703 -62.04864502 73.3626709 C-62.04854336 78.00756236 -62.06220201 82.65230108 -62.07941723 87.29715633 C-62.09054165 90.87196045 -62.0925641 94.44672767 -62.09203529 98.02154732 C-62.09321449 99.73393849 -62.0976329 101.44633065 -62.10536766 103.15870476 C-62.11517769 105.55460155 -62.11228572 107.95016708 -62.10626221 110.34606934 C-62.11469147 111.4037149 -62.11469147 111.4037149 -62.12329102 112.48272705 C-62.09817835 116.41860252 -61.76376233 119.53157013 -59.86334229 123.01037598 C-56.67571863 125.13545841 -54.59822006 125.51239227 -50.86334229 126.01037598 C-50.88475281 125.06934525 -50.90616333 124.12831451 -50.92822266 123.1587677 C-51.12740839 114.28684157 -51.30508035 105.41471017 -51.4617424 96.54192829 C-51.54297313 91.9804063 -51.63175535 87.41929308 -51.737854 82.85827637 C-51.83998306 78.45591988 -51.92219895 74.05359882 -51.99066925 69.65059471 C-52.0202694 67.97155959 -52.05702123 66.29263469 -52.10106659 64.6139164 C-52.16158264 62.26069253 -52.1965594 59.90835874 -52.22564697 57.55456543 C-52.24937881 56.86188568 -52.27311066 56.16920593 -52.29756165 55.45553589 C-52.31357167 51.90620524 -51.92566896 50.10592026 -49.96569824 47.10136414 C-47.24142665 44.39182314 -46.35779746 44.06531544 -42.48834229 43.63537598 C-38.86334229 44.01037598 -38.86334229 44.01037598 -36.66684341 46.11422253 C-34.48490001 49.61809774 -34.36952044 51.61702012 -34.38232422 55.72383118 C-34.37890652 56.38555523 -34.37548882 57.04727929 -34.37196755 57.72905558 C-34.36539647 59.93891579 -34.38734964 62.14755216 -34.40924072 64.3572998 C-34.41036938 65.94422375 -34.40973499 67.53114978 -34.4074707 69.11807251 C-34.40632333 73.42154148 -34.42983631 77.72456424 -34.45776653 82.02792954 C-34.48277629 86.52691271 -34.48512185 91.02590617 -34.48986816 95.52494812 C-34.5022992 104.04242037 -34.53512252 112.55968719 -34.57526612 121.07706898 C-34.61997986 130.77467394 -34.64196987 140.47228872 -34.66204786 150.16997111 C-34.70385504 170.11688738 -34.77420959 190.06361873 -34.86334229 210.01037598 C-37.33834229 211.00037598 -37.33834229 211.00037598 -39.86334229 212.01037598 C-41.13847992 210.93211233 -42.40826798 209.84752079 -43.67584229 208.76037598 C-44.3835376 208.15709473 -45.09123291 207.55381348 -45.82037354 206.93225098 C-48.72101031 204.20354487 -50.66926889 202.3347184 -51.2620697 198.28948975 C-51.27317276 197.25024353 -51.28427582 196.21099731 -51.29571533 195.14025879 C-51.31550949 193.95933655 -51.33530365 192.77841431 -51.35569763 191.56170654 C-51.36208755 190.29179871 -51.36847748 189.02189087 -51.37506104 187.71350098 C-51.40198784 185.75764069 -51.40198784 185.75764069 -51.42945862 183.76226807 C-51.47691217 180.30341604 -51.50675109 176.84462904 -51.53289795 173.38555908 C-51.56272726 169.85281536 -51.60924934 166.32029555 -51.65435791 162.78771973 C-51.74033774 155.86206614 -51.80770651 148.93633797 -51.86334229 142.01037598 C-52.53663574 141.9621167 -53.2099292 141.91385742 -53.90362549 141.86413574 C-54.79396484 141.78993408 -55.6843042 141.71573242 -56.60162354 141.63928223 C-57.92093872 141.53595581 -57.92093872 141.53595581 -59.26690674 141.43054199 C-66.26472529 140.29812584 -70.90691992 135.27962643 -75.41802979 130.17053223 C-78.87104309 125.0096772 -79.16105457 119.68280887 -79.15386963 113.64099121 C-79.16058685 112.82218979 -79.16730408 112.00338837 -79.17422485 111.15977478 C-79.19316178 108.46277729 -79.19712765 105.76602951 -79.19927979 103.06896973 C-79.20571348 101.18054607 -79.21244227 99.29212339 -79.2194519 97.40370178 C-79.23141594 93.4453399 -79.23513391 89.4870652 -79.23394775 85.52868652 C-79.23374526 80.48763484 -79.26097945 75.44715131 -79.29549217 70.40623379 C-79.31787739 66.50339763 -79.32178166 62.60069533 -79.3207283 58.69780159 C-79.32306942 56.84128943 -79.33180775 54.98477273 -79.34739304 53.12832451 C-79.45434159 39.06622623 -78.87305294 25.07825604 -68.86334229 14.01037598 C-68.20334229 14.01037598 -67.54334229 14.01037598 -66.86334229 14.01037598 C-66.86334229 13.35037598 -66.86334229 12.69037598 -66.86334229 12.01037598 C-66.20334229 12.01037598 -65.54334229 12.01037598 -64.86334229 12.01037598 C-64.86334229 11.35037598 -64.86334229 10.69037598 -64.86334229 10.01037598 C-63.21099854 8.60803223 -63.21099854 8.60803223 -60.92584229 7.07287598 C-60.19494385 6.56885254 -59.46404541 6.0648291 -58.71099854 5.54553223 C-51.92555513 1.88753599 -45.37853264 0.55615219 -37.73052979 0.46350098 C-36.87186813 0.44254364 -36.01320648 0.4215863 -35.12852478 0.3999939 C-32.33184325 0.33735976 -29.53547609 0.29712042 -26.73834229 0.26037598 C-25.29719559 0.23617584 -25.29719559 0.23617584 -23.82693481 0.21148682 C-15.88468012 0.07897222 -7.94321021 0.02878404 0 0 Z " fill="#26AAA9" transform="translate(320.86334228515625,108.9896240234375)"/>
<path d="M0 0 C1.175625 0.53625 2.35125 1.0725 3.5625 1.625 C8.20137817 4.41268266 11.79808755 8.69197234 15 13 C15 13.66 15 14.32 15 15 C15.66 15 16.32 15 17 15 C22.71712785 24.69869903 22.56732584 37.40449785 20.33984375 48.19921875 C16.7284089 58.15802396 9.04587532 66.76439638 -0.5 71.25 C-9.68245423 75.03909925 -21.57082925 75.60689663 -30.8515625 71.84375 C-37.16171681 68.90005519 -42.81803509 65.71338868 -47 60 C-47 59.34 -47 58.68 -47 58 C-47.66 58 -48.32 58 -49 58 C-49.63309191 56.81679424 -50.25596718 55.62812152 -50.875 54.4375 C-51.22304688 53.77621094 -51.57109375 53.11492187 -51.9296875 52.43359375 C-56.18149259 42.76616832 -56.70772373 31.77193723 -53.125 21.8125 C-51.87804464 18.80595208 -50.47928736 15.89860361 -49 13 C-48.34 13 -47.68 13 -47 13 C-46.75636719 12.42378906 -46.51273437 11.84757812 -46.26171875 11.25390625 C-42.65099845 4.803796 -35.89770596 0.25501926 -29 -2 C-19.59273303 -4.30282056 -8.822386 -4.14958851 0 0 Z M-35.36328125 23.703125 C-38.49522063 28.09830484 -39.24997363 31.9312809 -38.6875 37.1875 C-37.98126594 41.12769014 -37.98126594 41.12769014 -37 45 C-36.34 45 -35.68 45 -35 45 C-34.938125 45.556875 -34.87625 46.11375 -34.8125 46.6875 C-33.37561189 50.77710462 -30.11847395 53.10522084 -26.8125 55.75 C-21.31205987 58.19464006 -15.48362848 58.82642325 -9.75 56.8125 C-8.48617926 56.23780486 -7.23476718 55.63471834 -6 55 C-4.948125 54.484375 -3.89625 53.96875 -2.8125 53.4375 C2.10791495 49.17314037 4.26534238 43.61721779 6 37.4375 C6 30.6178237 3.45437884 24.15770182 -1 19 C-3.8920547 17.09434253 -6.88559933 15.50910148 -10 14 C-10.66 13.67 -11.32 13.34 -12 13 C-22.47092158 11.67484187 -28.80548493 15.818309 -35.36328125 23.703125 Z " fill="#24A9A9" transform="translate(334,30)"/>
<path d="M0 0 C8.57398994 5.36473114 15.59751706 13.38939292 18.53515625 23.25 C20.44158051 33.7460437 19.37534179 43.56648939 13.6015625 52.671875 C11.33538299 55.76879862 8.97294945 58.75668382 6.09765625 61.3125 C5.43765625 61.3125 4.77765625 61.3125 4.09765625 61.3125 C4.09765625 61.9725 4.09765625 62.6325 4.09765625 63.3125 C-5.35445241 68.98376519 -15.75485251 70.33353047 -26.5 68.015625 C-29.04605941 67.27043688 -31.45813002 66.34072538 -33.90234375 65.3125 C-33.90234375 64.6525 -33.90234375 63.9925 -33.90234375 63.3125 C-34.62421875 63.085625 -35.34609375 62.85875 -36.08984375 62.625 C-43.45268426 59.18900776 -47.84497162 51.46810004 -50.71484375 44.125 C-53.64606726 34.33740884 -52.58189334 24.32952685 -47.90234375 15.3125 C-44.62718531 10.26006364 -40.98452193 5.62182532 -35.90234375 2.3125 C-35.27585938 1.8690625 -34.649375 1.425625 -34.00390625 0.96875 C-24.45644041 -4.89658738 -10.02753145 -4.95356614 0 0 Z M-31.2890625 19.96875 C-35.19954196 25.61597535 -36.61033103 30.85808003 -35.52734375 37.671875 C-33.71584627 44.41970311 -29.87228828 47.93871874 -24.0078125 51.4453125 C-19.18844718 53.430283 -13.35805282 53.29804162 -8.546875 51.3671875 C-3.51056143 48.36240755 -0.0580991 44.91294953 2.34765625 39.5 C4.17512766 31.73324652 3.09455371 27.02157789 -0.90234375 20.3125 C-1.56234375 20.3125 -2.22234375 20.3125 -2.90234375 20.3125 C-2.90234375 19.6525 -2.90234375 18.9925 -2.90234375 18.3125 C-3.56234375 18.3125 -4.22234375 18.3125 -4.90234375 18.3125 C-4.90234375 17.6525 -4.90234375 16.9925 -4.90234375 16.3125 C-14.02937908 12.53579573 -24.17762436 11.47508867 -31.2890625 19.96875 Z " fill="#27AAAA" transform="translate(184.90234375,84.6875)"/>
<path d="M0 0 C1.41396973 -0.13595863 2.83176684 -0.23243845 4.25 -0.3125 C5.03890625 -0.37050781 5.8278125 -0.42851562 6.640625 -0.48828125 C9 0 9 0 11.10009766 2.02392578 C13.46486353 5.72817867 13.67432949 8.83749386 13.7578125 13.10546875 C13.78642365 13.89140915 13.81503479 14.67734955 13.84451294 15.48710632 C13.92402882 17.99167086 13.96860186 20.49439221 14 23 C14.01043335 23.80552307 14.0208667 24.61104614 14.03161621 25.440979 C14.07574422 30.26031846 14.0306311 35.07312202 13.92285156 39.89135742 C13.89049414 41.52854419 13.86964633 43.16599251 13.859375 44.8034668 C13.84417041 47.22028393 13.79697331 49.63457562 13.7421875 52.05078125 C13.74298309 52.77783768 13.74377869 53.5048941 13.74459839 54.25398254 C13.61270479 58.18869194 13.11531469 59.86048246 10.57470703 62.93432617 C6.75357523 66 6.75357523 66 4 66 C0.8125 64.75 0.8125 64.75 -2 63 C-3.01998165 59.94005504 -3.12674355 57.86152343 -3.12939453 54.65820312 C-3.13254669 53.56697144 -3.13569885 52.47573975 -3.13894653 51.35144043 C-3.1369223 50.17327759 -3.13489807 48.99511475 -3.1328125 47.78125 C-3.13424759 45.96711609 -3.13424759 45.96711609 -3.13571167 44.11633301 C-3.13639262 41.55753528 -3.13454426 38.99873582 -3.13037109 36.43994141 C-3.12502169 32.51591117 -3.13031901 28.59199541 -3.13671875 24.66796875 C-3.13605795 22.18489558 -3.13477676 19.70182248 -3.1328125 17.21875 C-3.13483673 16.04058716 -3.13686096 14.86242432 -3.13894653 13.64855957 C-3.13579437 12.55732788 -3.13264221 11.46609619 -3.12939453 10.34179688 C-3.12859894 9.38043823 -3.12780334 8.41907959 -3.12698364 7.42858887 C-3 5 -3 5 -2 2 C-1.34 2 -0.68 2 0 2 C0 1.34 0 0.68 0 0 Z " fill="#27A9A9" transform="translate(311,242)"/>
<path d="M0 0 C0.33 0.66 0.66 1.32 1 2 C0.67 2.99 0.34 3.98 0 5 C-0.66 5 -1.32 5 -2 5 C-2 5.99 -2 6.98 -2 8 C-1.34 8.33 -0.68 8.66 0 9 C1.125 11.0625 1.125 11.0625 2 13 C4.31 12.34 6.62 11.68 9 11 C9 10.01 9 9.02 9 8 C9 7.01 9 6.02 9 5 C10.32 5 11.64 5 13 5 C13 5.66 13 6.32 13 7 C13.99 7.33 14.98 7.66 16 8 C15.58113525 8.41362793 15.16227051 8.82725586 14.73071289 9.25341797 C12.83870591 11.12466831 10.95056815 12.99977585 9.0625 14.875 C8.40314453 15.52597656 7.74378906 16.17695313 7.06445312 16.84765625 C6.43603516 17.47285156 5.80761719 18.09804688 5.16015625 18.7421875 C4.57886963 19.3182373 3.99758301 19.89428711 3.39868164 20.48779297 C1.90048064 21.96652475 1.90048064 21.96652475 1 24 C0.34 24 -0.32 24 -1 24 C-1.433125 24.8971875 -1.433125 24.8971875 -1.875 25.8125 C-3 28 -3 28 -5 31 C-5.66 31 -6.32 31 -7 31 C-7.309375 31.61875 -7.61875 32.2375 -7.9375 32.875 C-8.625 34.25 -9.3125 35.625 -10 37 C-10.66 37 -11.32 37 -12 37 C-12 37.66 -12 38.32 -12 39 C-15.66305234 39.74926071 -18.42355152 40.2380014 -22 39 C-22 38.34 -22 37.68 -22 37 C-22.66 37 -23.32 37 -24 37 C-25.38065353 32.00840645 -25.13272883 29.62537814 -22.5625 25.0625 C-21.72606467 23.69730991 -20.87756515 22.3391219 -20 21 C-19.34 21 -18.68 21 -18 21 C-17.75636719 20.45085937 -17.51273437 19.90171875 -17.26171875 19.3359375 C-13.152001 11.72723404 -6.74190651 5.30745832 0 0 Z " fill="#2AABAB" transform="translate(87,342)"/>
<path d="M0 0 C0.33 0.66 0.66 1.32 1 2 C1.66 2.33 2.32 2.66 3 3 C-0.465 4.485 -0.465 4.485 -4 6 C-3.67 6.66 -3.34 7.32 -3 8 C-4 9 -5 10 -6 11 C-6.639375 11.70125 -7.27875 12.4025 -7.9375 13.125 C-10.12390179 15.11263799 -11.21035522 15.37008021 -14 16 C-15.73026102 17.47890069 -15.73026102 17.47890069 -17 19 C-16.01 19 -15.02 19 -14 19 C-13.67 19.66 -13.34 20.32 -13 21 C-12.34 20.67 -11.68 20.34 -11 20 C-11 20.99 -11 21.98 -11 23 C-10.071875 22.01 -10.071875 22.01 -9.125 21 C-7 19 -7 19 -5 19 C-5 18.34 -5 17.68 -5 17 C-4.01 16.67 -3.02 16.34 -2 16 C-0.33289654 14.50014391 -0.33289654 14.50014391 1 13 C1 13.99 1 14.98 1 16 C2.98 15.67 4.96 15.34 7 15 C6.01 15.495 6.01 15.495 5 16 C5 16.66 5 17.32 5 18 C-0.47619048 23 -0.47619048 23 -3 23 C-3.26425781 23.58394531 -3.52851563 24.16789062 -3.80078125 24.76953125 C-5.82572884 28.53580185 -8.61569257 31.40559128 -12 34 C-16.02680356 35.07381428 -18.06109524 35.31296825 -22 34 C-22 33.34 -22 32.68 -22 32 C-22.66 32 -23.32 32 -24 32 C-25.06733668 23.5798995 -25.06733668 23.5798995 -22.6171875 19.953125 C-20.81730799 18.19220392 -18.95392613 16.5870497 -17 15 C-16.236875 14.21625 -15.47375 13.4325 -14.6875 12.625 C-3.6097561 1.80487805 -3.6097561 1.80487805 0 0 Z " fill="#2DABAB" transform="translate(141,421)"/>
<path d="M0 0 C0.33 0 0.66 0 1 0 C2.09073751 4.47440822 2.21886733 8.89992943 2.31640625 13.48046875 C2.33723267 14.31456772 2.35805908 15.14866669 2.3795166 16.00804138 C2.44558089 18.73443583 2.50445546 21.46092384 2.5625 24.1875 C2.58367889 25.11463806 2.60485779 26.04177612 2.62667847 26.99700928 C3.03622276 44.99951413 3.11641233 62.99369959 3 81 C3.66 81.33 4.32 81.66 5 82 C4.505 82.495 4.505 82.495 4 83 C3.38465676 88.29195184 4.77741961 90.85668236 8 95 C9.62351109 96.79394446 9.62351109 96.79394446 11 98 C10.01 98.99 10.01 98.99 9 100 C7.86337618 98.80259416 6.74121834 97.59145019 5.625 96.375 C4.99851563 95.70210938 4.37203125 95.02921875 3.7265625 94.3359375 C-0.1159391 89.13725886 -0.28455375 83.68271755 -0.22705078 77.42431641 C-0.22734283 76.58463318 -0.22763489 75.74494995 -0.22793579 74.87982178 C-0.22654886 72.12029479 -0.21101773 69.36104199 -0.1953125 66.6015625 C-0.19158011 64.68199816 -0.1887342 62.76243192 -0.18673706 60.84286499 C-0.17911844 55.80241593 -0.15948516 50.76208301 -0.1373291 45.72167969 C-0.1168325 40.57358369 -0.10772719 35.42546883 -0.09765625 30.27734375 C-0.07623759 20.18484494 -0.04212304 10.09243215 0 0 Z " fill="#6AC4C4" transform="translate(242,145)"/>
<path d="M0 0 C0.33 0 0.66 0 1 0 C1 53.13 1 106.26 1 161 C-1.475 161.99 -1.475 161.99 -4 163 C-5.33920838 161.88200014 -6.67122556 160.75538103 -8 159.625 C-8.7425 158.99851562 -9.485 158.37203125 -10.25 157.7265625 C-11.11625 156.87191406 -11.11625 156.87191406 -12 156 C-12 155.34 -12 154.68 -12 154 C-11.29875 154.309375 -10.5975 154.61875 -9.875 154.9375 C-6.55295814 156.2674499 -6.55295814 156.2674499 -1 157 C-0.67 105.19 -0.34 53.38 0 0 Z " fill="#49AAAB" transform="translate(285,158)"/>
<path d="M0 0 C3.44748958 0.64047398 5.84644185 1.99705019 8.75 3.9375 C9.54921875 4.46214844 10.3484375 4.98679688 11.171875 5.52734375 C11.77515625 6.01332031 12.3784375 6.49929687 13 7 C13 7.66 13 8.32 13 9 C13.66 9 14.32 9 15 9 C15.33 9.99 15.66 10.98 16 12 C6.58997722 15.44419134 6.58997722 15.44419134 2 15 C2.33 15.99 2.66 16.98 3 18 C-0.86790003 18 -2.01319413 17.72629646 -5.25 16 C-5.95640625 15.62875 -6.6628125 15.2575 -7.390625 14.875 C-7.92171875 14.58625 -8.4528125 14.2975 -9 14 C-9 13.01 -9 12.02 -9 11 C-8.0925 10.979375 -7.185 10.95875 -6.25 10.9375 C-2.70890524 9.91603036 -2.35248284 9.60830474 -0.5625 6.625 C1.41666706 3.14014074 1.41666706 3.14014074 0 0 Z " fill="#32AEAC" transform="translate(215,162)"/>
<path d="M0 0 C0.99 0.33 1.98 0.66 3 1 C3 30.04 3 59.08 3 89 C1.515 89.495 1.515 89.495 0 90 C0 60.3 0 30.6 0 0 Z " fill="#3A9EA0" transform="translate(372,141)"/>
<path d="M0 0 C0.66 0 1.32 0 2 0 C1.34 1.32 0.68 2.64 0 4 C-1.49670731 4.0154612 -1.49670731 4.0154612 -3.02365112 4.03123474 C-12.41199033 4.12885214 -21.80026153 4.23157501 -31.18848991 4.33933926 C-36.01544762 4.39458098 -40.84241137 4.44800298 -45.66943359 4.49731445 C-50.32490552 4.54493957 -54.98030239 4.5972817 -59.63568497 4.65294075 C-61.4147264 4.67337271 -63.19378842 4.69208439 -64.97286606 4.70907402 C-67.45838641 4.73309943 -69.94376424 4.76315646 -72.42919922 4.79467773 C-73.54050201 4.80331093 -73.54050201 4.80331093 -74.67425537 4.81211853 C-78.46334041 4.80757099 -78.46334041 4.80757099 -82 6 C-82 4.68 -82 3.36 -82 2 C-54.94 2 -27.88 2 0 2 C0 1.34 0 0.68 0 0 Z " fill="#31A2A3" transform="translate(280,352)"/>
<path d="M0 0 C1.50404892 -0.00450165 1.50404892 -0.00450165 3.03848267 -0.00909424 C4.12068085 0.00325256 5.20287903 0.01559937 6.31787109 0.02832031 C7.44591156 0.03019348 8.57395203 0.03206665 9.73617554 0.03399658 C12.13192689 0.04072454 14.52766711 0.05465364 16.92333984 0.07519531 C20.52891663 0.10591375 24.13405229 0.11612849 27.73974609 0.12207031 C40.51142587 0.16581575 53.2251683 0.45726751 65.96630859 1.35644531 C65.96630859 1.68644531 65.96630859 2.01644531 65.96630859 2.35644531 C64.93747559 2.38150146 63.90864258 2.40655762 62.84863281 2.43237305 C59.01306793 2.52690583 55.17766488 2.62701251 51.34228516 2.72875977 C49.68574829 2.7719358 48.02917187 2.81362228 46.37255859 2.85375977 C43.9844168 2.91188461 41.5964709 2.97545479 39.20849609 3.04003906 C38.10657425 3.0651078 38.10657425 3.0651078 36.98239136 3.09068298 C33.91740423 3.17798013 30.97563021 3.35481418 27.95263672 3.88378906 C24.25318993 4.46931301 20.66910665 4.3766919 16.94287109 4.23535156 C16.19669525 4.21174057 15.45051941 4.18812958 14.68173218 4.1638031 C12.31803581 4.08774119 9.95471582 4.00347312 7.59130859 3.91894531 C5.98064941 3.86566692 4.36997233 3.812927 2.75927734 3.76074219 C-1.17194679 3.63220481 -5.10285469 3.4963113 -9.03369141 3.35644531 C-5.95723016 0.65906167 -4.07195422 -0.01690053 0 0 Z " fill="#52B4B3" transform="translate(177.03369140625,409.6435546875)"/>
<path d="M0 0 C10.37106693 -0.06976373 20.74207727 -0.12294454 31.11333179 -0.15543652 C35.93005015 -0.17103752 40.74660699 -0.19217317 45.56323242 -0.22631836 C50.21870684 -0.25911152 54.87402669 -0.27689479 59.52960777 -0.28463173 C61.29846311 -0.29013963 63.06731078 -0.30089444 64.83609962 -0.31719017 C84.77851901 -0.49347382 84.77851901 -0.49347382 92 3 C92.99 4.485 92.99 4.485 94 6 C93.19820313 5.79503906 92.39640625 5.59007812 91.5703125 5.37890625 C72.17534009 0.78304544 51.85397249 1.7428536 32.02319336 1.46777344 C28.40214079 1.41674372 24.7811526 1.36149141 21.16015625 1.30664062 C14.10682702 1.20039617 7.0534395 1.09867816 0 1 C0 0.67 0 0.34 0 0 Z " fill="#54B0B1" transform="translate(199,369)"/>
<path d="M0 0 C0.33 0.99 0.66 1.98 1 3 C2.98 2.67 4.96 2.34 7 2 C6.01 2.495 6.01 2.495 5 3 C5 3.66 5 4.32 5 5 C-0.47619048 10 -0.47619048 10 -3 10 C-3.25523437 10.58265625 -3.51046875 11.1653125 -3.7734375 11.765625 C-5.11741087 14.21388223 -6.61810296 15.81743248 -8.625 17.75 C-9.57246094 18.67039062 -9.57246094 18.67039062 -10.5390625 19.609375 C-11.02117187 20.06828125 -11.50328125 20.5271875 -12 21 C-12.99 20.67 -13.98 20.34 -15 20 C-13.625 18.5 -13.625 18.5 -12 17 C-11.34 17 -10.68 17 -10 17 C-9.34 15.35 -8.68 13.7 -8 12 C-8.66 12 -9.32 12 -10 12 C-9 10 -8 8 -7 6 C-6.34 6 -5.68 6 -5 6 C-5 5.34 -5 4.68 -5 4 C-4.01 3.67 -3.02 3.34 -2 3 C-1.34 2.01 -0.68 1.02 0 0 Z " fill="#41B2B0" transform="translate(141,434)"/>
<path d="M0 0 C0.66 0 1.32 0 2 0 C2.16886675 5.79814125 2.32928069 11.59643514 2.48217773 17.39501953 C2.53524502 19.36383206 2.5905421 21.3325859 2.64819336 23.30126953 C2.73109946 26.14603011 2.80573881 28.99091171 2.87890625 31.8359375 C2.90594131 32.70302338 2.93297638 33.57010925 2.96083069 34.46347046 C3.10240415 40.38188691 2.71592889 46.1245335 2 52 C1.34 52 0.68 52 0 52 C0 34.84 0 17.68 0 0 Z " fill="#269D9F" transform="translate(197,248)"/>
<path d="M0 0 C2.625 0.375 2.625 0.375 5 1 C5 1.66 5 2.32 5 3 C4.34 3 3.68 3 3 3 C2.690625 3.61875 2.38125 4.2375 2.0625 4.875 C1.375 6.25 0.6875 7.625 0 9 C-0.66 9 -1.32 9 -2 9 C-2 9.66 -2 10.32 -2 11 C-5.66305234 11.74926071 -8.42355152 12.2380014 -12 11 C-12 10.34 -12 9.68 -12 9 C-12.66 9 -13.32 9 -14 9 C-14 8.01 -14 7.02 -14 6 C-13.01 6 -12.02 6 -11 6 C-10.67 6.66 -10.34 7.32 -10 8 C-9.01 8.33 -8.02 8.66 -7 9 C-7.33 8.01 -7.66 7.02 -8 6 C-5.76152748 2.64229123 -5.59041601 2.7854035 -2 2 C-1.34 1.34 -0.68 0.68 0 0 Z " fill="#25A7A9" transform="translate(77,370)"/>
<path d="M0 0 C2 3 2 3 3 6 C2.01 6.495 2.01 6.495 1 7 C1 6.34 1 5.68 1 5 C0.34 5 -0.32 5 -1 5 C-1.66 6.32 -2.32 7.64 -3 9 C-3.66 9 -4.32 9 -5 9 C-4.67 11.64 -4.34 14.28 -4 17 C-5.65 17.99 -7.3 18.98 -9 20 C-9.33 19.34 -9.66 18.68 -10 18 C-10 18.66 -10 19.32 -10 20 C-10.99 20 -11.98 20 -13 20 C-13.33 20.66 -13.66 21.32 -14 22 C-13.52583422 17.02125936 -12.0900669 13.93281242 -9 10 C-8.34 10 -7.68 10 -7 10 C-6.773125 9.46375 -6.54625 8.9275 -6.3125 8.375 C-4.56617944 5.21499137 -2.3597151 2.7323017 0 0 Z " fill="#22A6A7" transform="translate(76,353)"/>
<path d="M0 0 C2.56715917 2.14077979 3.88098889 3.30359304 4.45410156 6.65722656 C4.4331543 7.64174805 4.41220703 8.62626953 4.390625 9.640625 C4.37773437 10.71054687 4.36484375 11.78046875 4.3515625 12.8828125 C4.31804687 13.99398438 4.28453125 15.10515625 4.25 16.25 C4.23195312 17.37664062 4.21390625 18.50328125 4.1953125 19.6640625 C4.14820222 22.44356896 4.08243361 25.2213534 4 28 C5.32 28.33 6.64 28.66 8 29 C5.69 29 3.38 29 1 29 C1 20.42 1 11.84 1 3 C0.34 3 -0.32 3 -1 3 C-0.67 2.01 -0.34 1.02 0 0 Z " fill="#66BCBB" transform="translate(174,273)"/>
<path d="M0 0 C2.31 0.66 4.62 1.32 7 2 C7 2.66 7 3.32 7 4 C7.99 4 8.98 4 10 4 C10 4.99 10 5.98 10 7 C9.34 7 8.68 7 8 7 C8.33 7.66 8.66 8.32 9 9 C9.99 9 10.98 9 12 9 C12 10.32 12 11.64 12 13 C12.99 13.33 13.98 13.66 15 14 C16.6875 15.5625 16.6875 15.5625 18 17 C16.35 16.67 14.7 16.34 13 16 C13 15.34 13 14.68 13 14 C12.278125 13.773125 11.55625 13.54625 10.8125 13.3125 C6.17217795 11.14701638 2.72644218 7.30490871 0 3 C0 2.01 0 1.02 0 0 Z " fill="#31ABA7" transform="translate(138,134)"/>
<path d="M0 0 C0.66 0.33 1.32 0.66 2 1 C0.84485889 7.10186302 -3.60293562 11.92642733 -8.0625 16.0625 C-11 18 -11 18 -13.875 17.8125 C-14.57625 17.544375 -15.2775 17.27625 -16 17 C-14.75325341 14.50650682 -13.30039894 13.53359929 -11 12 C-10.34 12 -9.68 12 -9 12 C-8.67 11.34 -8.34 10.68 -8 10 C-7.34 10.33 -6.68 10.66 -6 11 C-6.33 9.35 -6.66 7.7 -7 6 C-4.50907189 4.75453595 -3.58919267 5.2232422 -1 6 C-0.67 4.02 -0.34 2.04 0 0 Z " fill="#3EACAB" transform="translate(349,81)"/>
<path d="M0 0 C0.2475 0.61875 0.495 1.2375 0.75 1.875 C1.80004165 4.11049208 1.80004165 4.11049208 3.8125 4.875 C7.08511196 6.55805758 8.74179814 9.11451985 11 12 C7.57233436 12.85691641 5.37248325 13.01174497 2 12 C1.01 12 0.02 12 -1 12 C-1.92470553 7.28400182 -2.22923777 4.32734391 0 0 Z " fill="#1EA8A7" transform="translate(361,321)"/>
<path d="M0 0 C0.33 0.66 0.66 1.32 1 2 C1.66 2.33 2.32 2.66 3 3 C2.01 3.33 1.02 3.66 0 4 C0 20.17 0 36.34 0 53 C-0.33 53 -0.66 53 -1 53 C-1.19346252 45.93448487 -1.37090249 38.86869874 -1.53710938 31.80249023 C-1.5955748 29.3977748 -1.65773312 26.99314624 -1.72363281 24.58862305 C-1.8176187 21.13606582 -1.89839989 17.68341588 -1.9765625 14.23046875 C-2.00875885 13.15226364 -2.0409552 12.07405853 -2.0741272 10.96318054 C-2.09429901 9.96236954 -2.11447083 8.96155853 -2.13525391 7.93041992 C-2.15746002 7.04883713 -2.17966614 6.16725433 -2.20254517 5.25895691 C-2 3 -2 3 0 0 Z " fill="#29A3A6" transform="translate(245,139)"/>
<path d="M0 0 C0.66 0 1.32 0 2 0 C3.0176403 5.01608525 3.11856434 9.78608306 3.0625 14.875 C3.05798828 15.65875 3.05347656 16.4425 3.04882812 17.25 C3.03714093 19.16670014 3.01920908 21.08336048 3 23 C2.34 23 1.68 23 1 23 C0.03911617 20.11734851 -0.11670941 18.32337729 -0.09765625 15.33203125 C-0.09443359 14.43935547 -0.09121094 13.54667969 -0.08789062 12.62695312 C-0.07951172 11.69818359 -0.07113281 10.76941406 -0.0625 9.8125 C-0.05798828 8.87212891 -0.05347656 7.93175781 -0.04882812 6.96289062 C-0.03704626 4.64186288 -0.02059558 2.32096356 0 0 Z " fill="#52B5B6" transform="translate(308,282)"/>
<path d="M0 0 C0.67611328 -0.00386719 1.35222656 -0.00773437 2.04882812 -0.01171875 C7.0590035 -0.00174825 7.0590035 -0.00174825 9.3125 1.125 C9.3125 1.785 9.3125 2.445 9.3125 3.125 C8.04535156 3.09019531 6.77820313 3.05539063 5.47265625 3.01953125 C3.77345089 2.99136763 2.07423102 2.96407025 0.375 2.9375 C-0.45580078 2.91236328 -1.28660156 2.88722656 -2.14257812 2.86132812 C-7.56279623 2.7980571 -11.83439955 3.55711812 -16.87719727 5.57299805 C-18.6875 6.125 -18.6875 6.125 -20.6875 5.125 C-19.46243102 4.47142722 -18.23220484 3.82751767 -17 3.1875 C-16.31550781 2.82785156 -15.63101562 2.46820312 -14.92578125 2.09765625 C-10.02393137 -0.032467 -5.29593816 -0.01037402 0 0 Z " fill="#55ACAC" transform="translate(317.6875,26.875)"/>
<path d="M0 0 C0.74476089 0.02361099 1.48952179 0.04722198 2.2568512 0.07154846 C4.61026625 0.1474581 6.96328983 0.23178952 9.31640625 0.31640625 C10.92250758 0.36969998 12.52862739 0.42243973 14.13476562 0.47460938 C18.04972194 0.60297325 21.96435024 0.73888523 25.87890625 0.87890625 C25.87890625 1.20890625 25.87890625 1.53890625 25.87890625 1.87890625 C24.57856445 1.91649048 24.57856445 1.91649048 23.25195312 1.95483398 C20.00152801 2.05060079 16.75122954 2.14979169 13.50097656 2.2512207 C12.10062673 2.29423651 10.70023561 2.33593118 9.29980469 2.3762207 C-1.44557651 2.68579306 -1.44557651 2.68579306 -12.12109375 3.87890625 C-12.12109375 3.21890625 -12.12109375 2.55890625 -12.12109375 1.87890625 C-13.11109375 1.54890625 -14.10109375 1.21890625 -15.12109375 0.87890625 C-10.02057169 0.01376916 -5.1743564 -0.19770084 0 0 Z " fill="#2C9C9A" transform="translate(270.12109375,410.12109375)"/>
<path d="M0 0 C0.99 0.99 1.98 1.98 3 3 C2.34 3.66 1.68 4.32 1 5 C0.34 5 -0.32 5 -1 5 C-1.33 6.65 -1.66 8.3 -2 10 C-3.32 9.67 -4.64 9.34 -6 9 C-6 8.34 -6 7.68 -6 7 C-6.99 7 -7.98 7 -9 7 C-9 6.01 -9 5.02 -9 4 C-8.01 4 -7.02 4 -6 4 C-6.33 3.01 -6.66 2.02 -7 1 C-6.01 1.33 -5.02 1.66 -4 2 C-1.83284443 1.12516085 -1.83284443 1.12516085 0 0 Z " fill="#1DA9A6" transform="translate(72,369)"/>
<path d="M0 0 C2 1 2 1 3 3 C2.030625 3.45375 1.06125 3.9075 0.0625 4.375 C-3.07079582 5.65786221 -3.07079582 5.65786221 -4 8 C-4.99 8 -5.98 8 -7 8 C-7.226875 8.598125 -7.45375 9.19625 -7.6875 9.8125 C-9.3611297 12.60188284 -11.08817726 13.6168842 -14 15 C-14.66 14.67 -15.32 14.34 -16 14 C-8.88610478 6.33257403 -8.88610478 6.33257403 -4 5 C-4 4.34 -4 3.68 -4 3 C-2 1.375 -2 1.375 0 0 Z " fill="#54B2B3" transform="translate(104,327)"/>
<path d="M0 0 C1.32 0 2.64 0 4 0 C4 0.66 4 1.32 4 2 C4.99 2.33 5.98 2.66 7 3 C5.35718838 4.66964521 3.71067239 6.3356464 2.0625 8 C0.68771484 9.3921875 0.68771484 9.3921875 -0.71484375 10.8125 C-3 13 -3 13 -4 13 C-4.3125 10.6875 -4.3125 10.6875 -4 8 C-1.5 6.1875 -1.5 6.1875 1 5 C0.67 3.35 0.34 1.7 0 0 Z " fill="#43B2B1" transform="translate(96,347)"/>
<path d="M0 0 C1.1446875 0.3403125 1.1446875 0.3403125 2.3125 0.6875 C2.3125 1.3475 2.3125 2.0075 2.3125 2.6875 C1.6525 2.6875 0.9925 2.6875 0.3125 2.6875 C-0.1515625 3.615625 -0.1515625 3.615625 -0.625 4.5625 C-1.3125 5.9375 -2 7.3125 -2.6875 8.6875 C-3.3475 8.6875 -4.0075 8.6875 -4.6875 8.6875 C-4.6875 9.3475 -4.6875 10.0075 -4.6875 10.6875 C-5.3475 10.3575 -6.0075 10.0275 -6.6875 9.6875 C-6.0875 3.3275 -6.0875 3.3275 -4.4375 0.6875 C-2.6875 -0.3125 -2.6875 -0.3125 0 0 Z " fill="#49B6B3" transform="translate(79.6875,370.3125)"/>
<path d="M0 0 C0.33 0 0.66 0 1 0 C1.04898437 0.95261719 1.09796875 1.90523437 1.1484375 2.88671875 C1.22320312 4.14097656 1.29796875 5.39523438 1.375 6.6875 C1.44460938 7.92886719 1.51421875 9.17023438 1.5859375 10.44921875 C1.96422094 13.69317772 2.61979976 16.06567185 4 19 C4.66 19 5.32 19 6 19 C5.67 21.31 5.34 23.62 5 26 C0.15023999 20.48890908 -0.25039563 14.14735319 -0.125 7.0625 C-0.11597656 6.37865234 -0.10695313 5.69480469 -0.09765625 4.99023438 C-0.07438958 3.32666713 -0.03853167 1.66328369 0 0 Z " fill="#69BDBF" transform="translate(279,58)"/>
<path d="M0 0 C2.3125 1.5625 2.3125 1.5625 4 3 C3.67 3.66 3.34 4.32 3 5 C2.01 4.67 1.02 4.34 0 4 C0 3.34 0 2.68 0 2 C-3.77254453 2.50980331 -5.44987123 3.20700182 -8 6 C-8.66 6 -9.32 6 -10 6 C-9.75 3.625 -9.75 3.625 -9 1 C-5.91218863 -1.42613751 -3.63250289 -1.18056344 0 0 Z " fill="#61B9B6" transform="translate(138,196)"/>
<path d="M0 0 C1.16208984 0.01353516 1.16208984 0.01353516 2.34765625 0.02734375 C4.23190843 0.05060612 6.11599832 0.0864636 8 0.125 C8 0.455 8 0.785 8 1.125 C-0.3230205 2.26802815 -8.63051177 3.37666929 -17 4.125 C-17 3.465 -17 2.805 -17 2.125 C-11.16420924 0.44057858 -6.05539796 -0.13643011 0 0 Z " fill="#4CAEAD" transform="translate(172,316.875)"/>
<path d="M0 0 C0.9075 0.391875 1.815 0.78375 2.75 1.1875 C1.1875 3.1875 1.1875 3.1875 -1.25 5.1875 C-5 5.4375 -5 5.4375 -8.25 5.1875 C-8.25 5.8475 -8.25 6.5075 -8.25 7.1875 C-9.57 7.5175 -10.89 7.8475 -12.25 8.1875 C-11.92 7.5275 -11.59 6.8675 -11.25 6.1875 C-10.59 6.1875 -9.93 6.1875 -9.25 6.1875 C-9.25 5.5275 -9.25 4.8675 -9.25 4.1875 C-8.59 4.1875 -7.93 4.1875 -7.25 4.1875 C-7.25 3.5275 -7.25 2.8675 -7.25 2.1875 C-4.6138047 -0.65147955 -3.84708165 -0.96177041 0 0 Z " fill="#38ACB0" transform="translate(361.25,278.8125)"/>
<path d="M0 0 C0.8125 1.6875 0.8125 1.6875 1 4 C-2.11134309 7.77132496 -5.68365599 10.70969501 -10 13 C-13.375 12.75 -13.375 12.75 -16 12 C-15.43410156 11.71769531 -14.86820312 11.43539062 -14.28515625 11.14453125 C-13.53105469 10.76683594 -12.77695312 10.38914062 -12 10 C-11.25621094 9.63261719 -10.51242187 9.26523438 -9.74609375 8.88671875 C-5.22956096 6.5405672 -2.09473387 4.88771237 0 0 Z " fill="#5BB6B4" transform="translate(336,76)"/>
<path d="M0 0 C2 3 2 3 3 6 C2.01 6.495 2.01 6.495 1 7 C1 6.34 1 5.68 1 5 C0.34 5 -0.32 5 -1 5 C-1.66 6.32 -2.32 7.64 -3 9 C-3.66 9 -4.32 9 -5 9 C-5 9.66 -5 10.32 -5 11 C-6.32 11.33 -7.64 11.66 -9 12 C-9 11.34 -9 10.68 -9 10 C-8.34 10 -7.68 10 -7 10 C-6.773125 9.46375 -6.54625 8.9275 -6.3125 8.375 C-4.56617944 5.21499137 -2.3597151 2.7323017 0 0 Z " fill="#53B8B5" transform="translate(76,353)"/>
<path d="M0 0 C0 0.99 0 1.98 0 3 C-0.33 2.34 -0.66 1.68 -1 1 C-5.65571384 3.16158143 -8.98396789 5.12792241 -11 10 C-11.33 7.69 -11.66 5.38 -12 3 C-11.34 3 -10.68 3 -10 3 C-10 2.34 -10 1.68 -10 1 C-6.42181037 -1.33958553 -4.07775191 -0.9267618 0 0 Z " fill="#55B3B0" transform="translate(209,196)"/>
<path d="M0 0 C0.66 0 1.32 0 2 0 C1.5012629 2.24431696 0.89454223 4.25046219 0 6.375 C-1.09185475 9.24111871 -1.57709822 11.9692039 -2 15 C-2.33 15 -2.66 15 -3 15 C-3 13.35 -3 11.7 -3 10 C-3.66 10 -4.32 10 -5 10 C-5 8.35 -5 6.7 -5 5 C-4.01 4.67 -3.02 4.34 -2 4 C-2 3.34 -2 2.68 -2 2 C-1.34 2 -0.68 2 0 2 C0 1.34 0 0.68 0 0 Z " fill="#4BB5B2" transform="translate(119,182)"/>
<path d="M0 0 C2.64 0 5.28 0 8 0 C6.72648692 3.82053924 5.37362475 4.23021375 1.9375 6.1875 C1.01839844 6.71730469 0.09929687 7.24710937 -0.84765625 7.79296875 C-1.55792969 8.19128906 -2.26820313 8.58960938 -3 9 C-3.33 8.01 -3.66 7.02 -4 6 C-3.01 5.67 -2.02 5.34 -1 5 C-0.67 3.35 -0.34 1.7 0 0 Z " fill="#4DB2B3" transform="translate(378,322)"/>
<path d="M0 0 C0.33 0 0.66 0 1 0 C1.02505615 0.79172607 1.0501123 1.58345215 1.07592773 2.39916992 C1.19215729 5.99543363 1.31476176 9.5914528 1.4375 13.1875 C1.47681641 14.43337891 1.51613281 15.67925781 1.55664062 16.96289062 C1.59853516 18.16494141 1.64042969 19.36699219 1.68359375 20.60546875 C1.72025146 21.71043701 1.75690918 22.81540527 1.79467773 23.95385742 C1.98152656 26.72592972 2.38162366 29.29542873 3 32 C2.01 32.495 2.01 32.495 1 33 C-0.48679725 30.02640551 -0.11112605 27.33700821 -0.09765625 24.0234375 C-0.09553383 22.99556625 -0.09553383 22.99556625 -0.09336853 21.94692993 C-0.08776675 19.75624239 -0.07521406 17.5656567 -0.0625 15.375 C-0.05748522 13.89062648 -0.05292228 12.40625135 -0.04882812 10.921875 C-0.03779677 7.28121685 -0.02053099 3.64061836 0 0 Z " fill="#53AEAE" transform="translate(270,279)"/>
<path d="M0 0 C-2.64970595 1.76647063 -5.01498099 2.97014997 -7.9375 4.1875 C-8.79214844 4.55230469 -9.64679688 4.91710937 -10.52734375 5.29296875 C-13.18274477 6.05225403 -14.44179725 5.93187432 -17 5 C-15.68 4.67 -14.36 4.34 -13 4 C-13 3.34 -13 2.68 -13 2 C-11.39935157 1.46845258 -9.79431126 0.95011647 -8.1875 0.4375 C-7.29417969 0.14746094 -6.40085937 -0.14257812 -5.48046875 -0.44140625 C-3 -1 -3 -1 0 0 Z " fill="#50B0AE" transform="translate(134,160)"/>
<path d="M0 0 C4.03715781 3.53958093 5.00755817 7.851708 6 13 C6.22652239 17.01605318 6.18634739 20.98317854 6 25 C5.67 25 5.34 25 5 25 C4.97421875 24.34515625 4.9484375 23.6903125 4.921875 23.015625 C4.50886561 16.36992841 3.12374416 10.68384078 0.83984375 4.43359375 C0 2 0 2 0 0 Z " fill="#64BAB7" transform="translate(198,99)"/>
<path d="M0 0 C0 0.66 0 1.32 0 2 C-0.66 2 -1.32 2 -2 2 C-2.66 3.65 -3.32 5.3 -4 7 C-8.455 7.495 -8.455 7.495 -13 8 C-12.34 7.67 -11.68 7.34 -11 7 C-11 6.34 -11 5.68 -11 5 C-9.54462432 4.16151196 -8.08559627 3.32936066 -6.625 2.5 C-5.81289062 2.0359375 -5.00078125 1.571875 -4.1640625 1.09375 C-2 0 -2 0 0 0 Z " fill="#53B3B2" transform="translate(119,319)"/>
<path d="M0 0 C2.31 0.33 4.62 0.66 7 1 C7.33 1.99 7.66 2.98 8 4 C6.75 5.5625 6.75 5.5625 5 7 C2.8125 6.6875 2.8125 6.6875 1 6 C1.33 4.68 1.66 3.36 2 2 C1.34 2 0.68 2 0 2 C0 1.34 0 0.68 0 0 Z " fill="#39ABAB" transform="translate(352,153)"/>
<path d="M0 0 C0.33 0.66 0.66 1.32 1 2 C1.66 2.33 2.32 2.66 3 3 C-0.465 4.485 -0.465 4.485 -4 6 C-3.67 6.66 -3.34 7.32 -3 8 C-6.47307692 10.10865385 -6.47307692 10.10865385 -9.140625 9.55859375 C-10.06101563 9.28208984 -10.06101563 9.28208984 -11 9 C-9.54405245 7.68485396 -8.08516421 6.37296283 -6.625 5.0625 C-5.81289062 4.33160156 -5.00078125 3.60070312 -4.1640625 2.84765625 C-2 1 -2 1 0 0 Z " fill="#4CB0AC" transform="translate(141,421)"/>
<path d="M0 0 C2.51083114 1.25541557 2.87125446 2.50063488 4 5 C-0.30769231 8.07692308 -0.30769231 8.07692308 -3.8125 7.6875 C-4.534375 7.460625 -5.25625 7.23375 -6 7 C-4.68 6.34 -3.36 5.68 -2 5 C-2 3.68 -2 2.36 -2 1 C-1.34 0.67 -0.68 0.34 0 0 Z " fill="#3FB3B4" transform="translate(374,242)"/>
<path d="M0 0 C5.59282842 1.36410449 8.91193811 4.15383526 13 8 C10 9 10 9 7 9 C6.71125 8.360625 6.4225 7.72125 6.125 7.0625 C5.17176549 4.84793921 5.17176549 4.84793921 3 4 C3 3.34 3 2.68 3 2 C2.01 2 1.02 2 0 2 C0 1.34 0 0.68 0 0 Z " fill="#4AB0AC" transform="translate(364,113)"/>
<path d="M0 0 C1.15628906 -0.00515625 2.31257813 -0.0103125 3.50390625 -0.015625 C6.4375 0.25 6.4375 0.25 8.4375 2.25 C7.4375 3.25 7.4375 3.25 5.3984375 3.3828125 C0.30203933 3.36741553 -4.5398694 3.12350097 -9.5625 2.25 C-5.97967765 -0.13854824 -4.24856967 -0.01898802 0 0 Z " fill="#4EB2AE" transform="translate(315.5625,100.75)"/>
<path d="M0 0 C-0.99 0.66 -1.98 1.32 -3 2 C-4.36890491 3.14933799 -5.72214999 4.3174856 -7.0625 5.5 C-8.10083984 6.41265625 -8.10083984 6.41265625 -9.16015625 7.34375 C-10.47369787 8.52621634 -11.75027638 9.75027638 -13 11 C-12.75 8.125 -12.75 8.125 -12 5 C-9.9375 3.625 -9.9375 3.625 -8 3 C-8 2.34 -8 1.68 -8 1 C-5.07175348 0.02391783 -3.04386724 -0.08226668 0 0 Z " fill="#67BEBB" transform="translate(311,44)"/>
<path d="M0 0 C0.66 0.99 1.32 1.98 2 3 C0.4198632 5.15473199 -1.10646634 7.10646634 -3 9 C-5.625 9.125 -5.625 9.125 -8 9 C-8 8.34 -8 7.68 -8 7 C-7.34 7 -6.68 7 -6 7 C-6 6.34 -6 5.68 -6 5 C-5.34 5 -4.68 5 -4 5 C-4 4.34 -4 3.68 -4 3 C-2 1.375 -2 1.375 0 0 Z " fill="#4AB3B1" transform="translate(305,325)"/>
<path d="M0 0 C4.08963819 2.28538605 7.46362104 4.95706926 11 8 C9.68 8.33 8.36 8.66 7 9 C7 8.34 7 7.68 7 7 C5.02 7 3.04 7 1 7 C1.33 5.35 1.66 3.7 2 2 C1.34 2 0.68 2 0 2 C0 1.34 0 0.68 0 0 Z " fill="#48B3B2" transform="translate(264,312)"/>
<path d="M0 0 C0.99 0.33 1.98 0.66 3 1 C1.5140084 5.59306496 -0.85014682 8.43569245 -4 12 C-4.33 11.01 -4.66 10.02 -5 9 C-4.34 9 -3.68 9 -3 9 C-3.33 8.01 -3.66 7.02 -4 6 C-3.34 5.67 -2.68 5.34 -2 5 C-1.27840576 3.35636866 -0.60648579 1.68949614 0 0 Z " fill="#59B7B3" transform="translate(234,276)"/>
<path d="M0 0 C0.33 0.99 0.66 1.98 1 3 C2.98 2.67 4.96 2.34 7 2 C6.01 2.495 6.01 2.495 5 3 C5 3.66 5 4.32 5 5 C3.03852126 6.38938077 1.03833424 7.7260411 -1 9 C-1.66 7.68 -2.32 6.36 -3 5 C-2.01 4.67 -1.02 4.34 0 4 C-0.33 3.01 -0.66 2.02 -1 1 C-0.67 0.67 -0.34 0.34 0 0 Z " fill="#4BB3B1" transform="translate(141,434)"/>
<path d="M0 0 C1.1446875 0.495 1.1446875 0.495 2.3125 1 C4.99069135 2.17436686 4.99069135 2.17436686 8 2 C8 3.32 8 4.64 8 6 C8.99 6.33 9.98 6.66 11 7 C12.6875 8.5625 12.6875 8.5625 14 10 C12.35 9.67 10.7 9.34 9 9 C9 8.34 9 7.68 9 7 C8.2575 6.7525 7.515 6.505 6.75 6.25 C3.78592854 4.90269479 2.12500716 3.43982304 0 1 C0 0.67 0 0.34 0 0 Z " fill="#54B4B1" transform="translate(142,141)"/>
<path d="M0 0 C1.32 0.99 2.64 1.98 4 3 C3.38125 3.9075 2.7625 4.815 2.125 5.75 C0.54959616 8.15944116 -0.7575449 10.42554349 -2 13 C-2.05416188 11.39620659 -2.09286638 9.79188594 -2.125 8.1875 C-2.14820313 7.29417969 -2.17140625 6.40085938 -2.1953125 5.48046875 C-2 3 -2 3 0 0 Z " fill="#51B5B7" transform="translate(261,132)"/>
<path d="M0 0 C0.96070434 2.88211302 1.10581883 4.69850044 1.0625 7.6875 C1.05347656 8.49574219 1.04445313 9.30398438 1.03515625 10.13671875 C1.02355469 10.75160156 1.01195313 11.36648438 1 12 C1.66 12 2.32 12 3 12 C3 12.66 3 13.32 3 14 C2.01 14 1.02 14 0 14 C0 13.34 0 12.68 0 12 C-0.66 12 -1.32 12 -2 12 C-2.05395478 10.37536158 -2.09277195 8.75021459 -2.125 7.125 C-2.14820312 6.22007812 -2.17140625 5.31515625 -2.1953125 4.3828125 C-2 2 -2 2 0 0 Z " fill="#60B4B3" transform="translate(119,441)"/>
<path d="M0 0 C0.99 0.33 1.98 0.66 3 1 C2.67 1.66 2.34 2.32 2 3 C4.31 3 6.62 3 9 3 C9 3.66 9 4.32 9 5 C6.36 5 3.72 5 1 5 C0.67 5.66 0.34 6.32 0 7 C-0.66 5.68 -1.32 4.36 -2 3 C-1.34 2.01 -0.68 1.02 0 0 Z " fill="#61BEC1" transform="translate(293,358)"/>
<path d="M0 0 C4.875 2.625 4.875 2.625 6 6 C6.0685495 7.89470816 6.08480372 9.7916834 6.0625 11.6875 C6.05347656 12.68136719 6.04445313 13.67523438 6.03515625 14.69921875 C6.02355469 15.45847656 6.01195312 16.21773438 6 17 C5.34 17 4.68 17 4 17 C4.061875 15.783125 4.12375 14.56625 4.1875 13.3125 C4.19442348 9.40073507 3.41890746 7.16318668 1 4 C0.34 3.34 -0.32 2.68 -1 2 C-0.67 1.34 -0.34 0.68 0 0 Z " fill="#55B4B2" transform="translate(384,285)"/>
<path d="M0 0 C1.65 0.33 3.3 0.66 5 1 C5 1.66 5 2.32 5 3 C5.66 3 6.32 3 7 3 C6.67 3.66 6.34 4.32 6 5 C4.68 4.67 3.36 4.34 2 4 C2 4.99 2 5.98 2 7 C1.01 7 0.02 7 -1 7 C-1.33 5.68 -1.66 4.36 -2 3 C-1.34 2.67 -0.68 2.34 0 2 C0 1.34 0 0.68 0 0 Z " fill="#40B0B1" transform="translate(391,275)"/>
<path d="M0 0 C0.66 0 1.32 0 2 0 C3 3 3 3 3 7 C2.34 7 1.68 7 1 7 C1 7.99 1 8.98 1 10 C1.66 10.33 2.32 10.66 3 11 C2.01 11.33 1.02 11.66 0 12 C-1.49498913 9.01002175 -1.11577446 6.29957225 -1 3 C-0.67 2.01 -0.34 1.02 0 0 Z " fill="#1EA8A5" transform="translate(120,441)"/>
<path d="M0 0 C-3.3 2.31 -6.6 4.62 -10 7 C-10.66 6.67 -11.32 6.34 -12 6 C-11.34 4.68 -10.68 3.36 -10 2 C-9.01 2 -8.02 2 -7 2 C-7 1.34 -7 0.68 -7 0 C-3.98968256 -0.93423645 -3.13349732 -1.04449911 0 0 Z " fill="#5CB6B5" transform="translate(343,409)"/>
<path d="M0 0 C0.33 0 0.66 0 1 0 C1 5.28 1 10.56 1 16 C0.01 15.67 -0.98 15.34 -2 15 C-2 11.37 -2 7.74 -2 4 C-1.34 4 -0.68 4 0 4 C0 2.68 0 1.36 0 0 Z " fill="#3AA8A8" transform="translate(198,232)"/>
<path d="M0 0 C7.38461538 -0.49230769 7.38461538 -0.49230769 10.5 2 C10.995 2.66 11.49 3.32 12 4 C11.67 4.66 11.34 5.32 11 6 C7.2089881 4.55049545 3.6125362 2.84827434 0 1 C0 0.67 0 0.34 0 0 Z " fill="#58B8B5" transform="translate(322,43)"/>
<path d="M0 0 C0.66 0.33 1.32 0.66 2 1 C1.49259538 5.39750672 -1.08293314 7.86948922 -4 11 C-4.66 11 -5.32 11 -6 11 C-5.67 9.68 -5.34 8.36 -5 7 C-4.01 7 -3.02 7 -2 7 C-2 5.35 -2 3.7 -2 2 C-1.34 2 -0.68 2 0 2 C0 1.34 0 0.68 0 0 Z " fill="#5AB5B5" transform="translate(385,234)"/>
<path d="M0 0 C1.134375 0.020625 2.26875 0.04125 3.4375 0.0625 C0.81325342 1.81199772 -1.11977216 2.71639981 -4.0625 3.6875 C-5.22265625 4.07808594 -5.22265625 4.07808594 -6.40625 4.4765625 C-8.5625 5.0625 -8.5625 5.0625 -11.5625 5.0625 C-11.5625 4.0725 -11.5625 3.0825 -11.5625 2.0625 C-10.428125 1.918125 -9.29375 1.77375 -8.125 1.625 C-4.13770521 0.99542714 -4.0324238 0.07074428 0 0 Z " fill="#52B4B2" transform="translate(151.5625,320.9375)"/>
<path d="M0 0 C0.78375 0.04125 1.5675 0.0825 2.375 0.125 C1.385 0.62 1.385 0.62 0.375 1.125 C-0.71259087 5.21892846 -0.71259087 5.21892846 0.375 9.125 C-1.5625 8.4375 -1.5625 8.4375 -3.625 7.125 C-4.5 4.625 -4.5 4.625 -4.625 2.125 C-2.625 0.125 -2.625 0.125 0 0 Z " fill="#34ACA8" transform="translate(167.625,271.875)"/>
<path d="M0 0 C0.66 0 1.32 0 2 0 C3.36363208 1.97946592 4.69418644 3.9819245 6 6 C7.62351109 7.79394446 7.62351109 7.79394446 9 9 C8.34 9.66 7.68 10.32 7 11 C5.82439821 9.73742767 4.65977135 8.46462916 3.5 7.1875 C2.8503125 6.47980469 2.200625 5.77210938 1.53125 5.04296875 C0 3 0 3 0 0 Z " fill="#4CAFAD" transform="translate(244,234)"/>
<path d="M0 0 C0.33 1.32 0.66 2.64 1 4 C0.071875 4.12375 0.071875 4.12375 -0.875 4.25 C-3.18437567 4.81258459 -3.18437567 4.81258459 -4.25 7.0625 C-4.4975 7.701875 -4.745 8.34125 -5 9 C-6.32 8.34 -7.64 7.68 -9 7 C-7.35 6.34 -5.7 5.68 -4 5 C-4 4.34 -4 3.68 -4 3 C-2 1.375 -2 1.375 0 0 Z " fill="#47AEAE" transform="translate(397,347)"/>
<path d="M0 0 C0.7734375 1.175625 0.7734375 1.175625 1.5625 2.375 C4.5162323 5.55594248 6.81606548 6.11493693 11 7 C7.86501708 8.85776765 5.62528568 9.20140476 2 9 C0.50178941 5.62902617 0 3.79557881 0 0 Z " fill="#54B4B2" transform="translate(116,270)"/>
<path d="M0 0 C4.29 0.66 8.58 1.32 13 2 C12.01 2.99 11.02 3.98 10 5 C7.69 4.34 5.38 3.68 3 3 C3 3.66 3 4.32 3 5 C2.34 5 1.68 5 1 5 C0.67 3.35 0.34 1.7 0 0 Z " fill="#29A19F" transform="translate(259,233)"/>
<path d="M0 0 C0.33 0.66 0.66 1.32 1 2 C0.34 1.67 -0.32 1.34 -1 1 C-0.67 0.67 -0.34 0.34 0 0 Z M-4 2 C-3.01 2.33 -2.02 2.66 -1 3 C-0.67 4.65 -0.34 6.3 0 8 C-0.66 8 -1.32 8 -2 8 C-2.33 8.66 -2.66 9.32 -3 10 C-3 8.68 -3 7.36 -3 6 C-3.99 6 -4.98 6 -6 6 C-6 5.34 -6 4.68 -6 4 C-5.34 4 -4.68 4 -4 4 C-4 3.34 -4 2.68 -4 2 Z " fill="#36ACB0" transform="translate(140,436)"/>
<path d="M0 0 C1.32 0 2.64 0 4 0 C2.54744301 3.82946843 0.57104439 5.12050295 -3 7 C-3.625 5.125 -3.625 5.125 -4 3 C-3.34 2.34 -2.68 1.68 -2 1 C-1.34 1.33 -0.68 1.66 0 2 C0 1.34 0 0.68 0 0 Z " fill="#48B3B2" transform="translate(347,401)"/>
<path d="M0 0 C3.91402949 1.26941497 5.79072873 2.51167694 8 6 C7.01 6.495 7.01 6.495 6 7 C6 6.34 6 5.68 6 5 C4.35 5.33 2.7 5.66 1 6 C0.67 4.02 0.34 2.04 0 0 Z " fill="#47AFAE" transform="translate(426,293)"/>
<path d="M0 0 C3.875 1.75 3.875 1.75 5 4 C0.25 8 0.25 8 -2 8 C-2 8.66 -2 9.32 -2 10 C-2.66 9.67 -3.32 9.34 -4 9 C-3.34 8.01 -2.68 7.02 -2 6 C-1.34 6 -0.68 6 0 6 C-0.33 5.01 -0.66 4.02 -1 3 C-0.67 2.01 -0.34 1.02 0 0 Z " fill="#4AB2B1" transform="translate(363,289)"/>
<path d="M0 0 C2.97 0 5.94 0 9 0 C9 0.33 9 0.66 9 1 C7.39125 1.309375 7.39125 1.309375 5.75 1.625 C1.29408826 3.2588343 0.22222392 4.91110799 -2 9 C-2.93423645 5.98968256 -3.04449911 5.13349732 -2 2 C-1.34 2 -0.68 2 0 2 C0 1.34 0 0.68 0 0 Z " fill="#69BAB7" transform="translate(311,242)"/>
<path d="M0 0 C1 3 1 3 0.0625 5.1875 C-0.4634375 6.0846875 -0.4634375 6.0846875 -1 7 C-1.66 7 -2.32 7 -3 7 C-3.33 8.98 -3.66 10.96 -4 13 C-4.66 13 -5.32 13 -6 13 C-5.51675181 7.84535266 -2.81389239 4.18449681 0 0 Z " fill="#4CACAC" transform="translate(141,94)"/>
<path d="M0 0 C2.97 0.495 2.97 0.495 6 1 C6 1.66 6 2.32 6 3 C6.763125 3.12375 7.52625 3.2475 8.3125 3.375 C11 4 11 4 14 6 C12 7 12 7 10.1953125 6.58203125 C5.94315207 5.00151124 2.97025401 3.58905693 0 0 Z " fill="#58B5B1" transform="translate(293,95)"/>
<path d="M0 0 C2 1 2 1 3 3 C1.35 3.66 -0.3 4.32 -2 5 C-2 5.66 -2 6.32 -2 7 C-3.65 7.33 -5.3 7.66 -7 8 C-6.02133662 6.85373678 -5.04205413 5.70800212 -4.0625 4.5625 C-3.51722656 3.92441406 -2.97195313 3.28632812 -2.41015625 2.62890625 C-1.63204305 1.73008851 -0.84063472 0.84063472 0 0 Z " fill="#43ADA8" transform="translate(295,33)"/>
<path d="M0 0 C0.99 0.33 1.98 0.66 3 1 C1.60667426 4.36720387 0.0210714 5.9859524 -3 8 C-3.75 6.25 -3.75 6.25 -4 4 C-2.0625 1.75 -2.0625 1.75 0 0 Z " fill="#3FAFAB" transform="translate(302,346)"/>
<path d="M0 0 C1.33332095 2.6666419 0.67102033 4.16680303 0 7 C-0.99 7.33 -1.98 7.66 -3 8 C-3.66 7.34 -4.32 6.68 -5 6 C-6.31747324 5.30251417 -7.64914193 4.63040043 -9 4 C-7.88625 3.71125 -6.7725 3.4225 -5.625 3.125 C-1.99708908 2.30758671 -1.99708908 2.30758671 0 0 Z " fill="#43AFAE" transform="translate(221,273)"/>
<path d="M0 0 C2 1 2 1 2.9375 2.6875 C3.04069916 6.5058689 0.5355733 8.27889695 -2 11 C-2.33 10.01 -2.66 9.02 -3 8 C-2.67 7.34 -2.34 6.68 -2 6 C-1.34 6 -0.68 6 0 6 C-0.2784375 4.7934375 -0.2784375 4.7934375 -0.5625 3.5625 C-0.706875 2.716875 -0.85125 1.87125 -1 1 C-0.67 0.67 -0.34 0.34 0 0 Z " fill="#42AFB0" transform="translate(195,133)"/>
<path d="M0 0 C0.66 0 1.32 0 2 0 C2.12375 0.969375 2.2475 1.93875 2.375 2.9375 C2.58125 3.948125 2.7875 4.95875 3 6 C3.66 6.33 4.32 6.66 5 7 C3.68 7.33 2.36 7.66 1 8 C0.01 6.68 -0.98 5.36 -2 4 C-1.34 3.34 -0.68 2.68 0 2 C0 1.34 0 0.68 0 0 Z " fill="#3AB0B2" transform="translate(196,361)"/>
<path d="M0 0 C-0.66 1.32 -1.32 2.64 -2 4 C-2.66 4 -3.32 4 -4 4 C-4 5.32 -4 6.64 -4 8 C-4.99 7.67 -5.98 7.34 -7 7 C-7.33 6.01 -7.66 5.02 -8 4 C-6.68 3.67 -5.36 3.34 -4 3 C-4 2.34 -4 1.68 -4 1 C-2 0 -2 0 0 0 Z " fill="#4CB1AF" transform="translate(369,316)"/>
<path d="M0 0 C0.66 0 1.32 0 2 0 C2 0.66 2 1.32 2 2 C2.66 2 3.32 2 4 2 C4.33 3.32 4.66 4.64 5 6 C3.35 6 1.7 6 0 6 C-0.66 4.68 -1.32 3.36 -2 2 C-1.34 2 -0.68 2 0 2 C0 1.34 0 0.68 0 0 Z " fill="#3AAFAD" transform="translate(219,179)"/>
<path d="M0 0 C0.33 0.66 0.66 1.32 1 2 C1.66 2.33 2.32 2.66 3 3 C2.01 3.33 1.02 3.66 0 4 C0 6.31 0 8.62 0 11 C-0.66 11 -1.32 11 -2 11 C-2.25 3.375 -2.25 3.375 0 0 Z " fill="#309E9E" transform="translate(245,139)"/>
<path d="M0 0 C0.99 0.495 0.99 0.495 2 1 C2 1.66 2 2.32 2 3 C2.66 3 3.32 3 4 3 C4.99 4.98 5.98 6.96 7 9 C6.01 9.495 6.01 9.495 5 10 C4.34 9.34 3.68 8.68 3 8 C2.34 7.67 1.68 7.34 1 7 C0.59270772 4.67843403 0.25561323 2.3431213 0 0 Z " fill="#4FB1B0" transform="translate(377,122)"/>
<path d="M0 0 C0.99 0 1.98 0 3 0 C1.75023244 3.65316671 1.32901247 4.78065836 -2 7 C-2.99 6.67 -3.98 6.34 -5 6 C-4.67 5.34 -4.34 4.68 -4 4 C-3.34 4 -2.68 4 -2 4 C-2 3.34 -2 2.68 -2 2 C-1.34 2 -0.68 2 0 2 C0 1.34 0 0.68 0 0 Z " fill="#1DAAA9" transform="translate(130,446)"/>
<path d="M0 0 C0.33 0.66 0.66 1.32 1 2 C1.66 2.33 2.32 2.66 3 3 C0.36 4.65 -2.28 6.3 -5 8 C-5 7.01 -5 6.02 -5 5 C-4.34 5 -3.68 5 -3 5 C-3 4.01 -3 3.02 -3 2 C-2.01 1.34 -1.02 0.68 0 0 Z " fill="#58B8B5" transform="translate(393,314)"/>
<path d="M0 0 C0.99 0.33 1.98 0.66 3 1 C3 2.65 3 4.3 3 6 C2.34 6 1.68 6 1 6 C1 6.66 1 7.32 1 8 C0.01 8.33 -0.98 8.66 -2 9 C-1.34 6.03 -0.68 3.06 0 0 Z " fill="#55B7B2" transform="translate(339,67)"/>
<path d="M0 0 C0.33 0.66 0.66 1.32 1 2 C1.66 2 2.32 2 3 2 C2.1875 3.9375 2.1875 3.9375 1 6 C0.01 6.33 -0.98 6.66 -2 7 C-2 6.34 -2 5.68 -2 5 C-2.66 5 -3.32 5 -4 5 C-4 4.01 -4 3.02 -4 2 C-2.68 1.34 -1.36 0.68 0 0 Z " fill="#34AEAF" transform="translate(348,43)"/>
<path d="M0 0 C3.67420866 0.30618405 4.78135513 0.75771784 7.3125 3.5625 C8.1478125 4.7690625 8.1478125 4.7690625 9 6 C8.01 6.495 8.01 6.495 7 7 C7 6.34 7 5.68 7 5 C6.401875 4.87625 5.80375 4.7525 5.1875 4.625 C3 4 3 4 0 2 C0 1.34 0 0.68 0 0 Z " fill="#51B4B3" transform="translate(335,32)"/>
<path d="M0 0 C0.99 0 1.98 0 3 0 C3.33 0.66 3.66 1.32 4 2 C6.01669827 3.13350534 6.01669827 3.13350534 8 4 C8 4.66 8 5.32 8 6 C5.03 5.505 5.03 5.505 2 5 C2 4.34 2 3.68 2 3 C1.34 3 0.68 3 0 3 C0 2.01 0 1.02 0 0 Z " fill="#63B7B3" transform="translate(63,376)"/>
<path d="M0 0 C0.66 0.33 1.32 0.66 2 1 C1.625 2.9375 1.625 2.9375 1 5 C0.01 5.495 0.01 5.495 -1 6 C-0.67 6.66 -0.34 7.32 0 8 C-0.99 8 -1.98 8 -3 8 C-3 7.34 -3 6.68 -3 6 C-3.66 5.67 -4.32 5.34 -5 5 C-3.35 3.35 -1.7 1.7 0 0 Z " fill="#4FB5B3" transform="translate(115,166)"/>
<path d="M0 0 C0.66 0.99 1.32 1.98 2 3 C1.34 3 0.68 3 0 3 C0 4.98 0 6.96 0 9 C-0.66 9 -1.32 9 -2 9 C-2 9.66 -2 10.32 -2 11 C-3.32 11.33 -4.64 11.66 -6 12 C-5.38125 11.13375 -4.7625 10.2675 -4.125 9.375 C-2.15345216 6.24371814 -1.01033009 3.53615531 0 0 Z " fill="#63B6B3" transform="translate(187,121)"/>
<path d="M0 0 C0.33 0 0.66 0 1 0 C1 4.29 1 8.58 1 13 C-1.2328877 10.7671123 -1.36778152 10.08090185 -1.75 7.0625 C-1.84796875 6.37285156 -1.9459375 5.68320313 -2.046875 4.97265625 C-2 3 -2 3 0 0 Z " fill="#289A9A" transform="translate(148,110)"/>
<path d="M0 0 C0.99 0 1.98 0 3 0 C3 1.32 3 2.64 3 4 C1.68 4 0.36 4 -1 4 C-1 4.66 -1 5.32 -1 6 C-1.66 6 -2.32 6 -3 6 C-2.42655063 3.13275314 -2.1385485 2.1385485 0 0 Z " fill="#22A7A2" transform="translate(397,362)"/>
<path d="M0 0 C2.64 0 5.28 0 8 0 C8 0.99 8 1.98 8 3 C5.03 2.67 2.06 2.34 -1 2 C-0.67 1.34 -0.34 0.68 0 0 Z " fill="#27A39D" transform="translate(361,235)"/>
<path d="M0 0 C-3.465 2.97 -3.465 2.97 -7 6 C-7 4.35 -7 2.7 -7 1 C-3.375 -1.125 -3.375 -1.125 0 0 Z " fill="#6FBEBB" transform="translate(99,354)"/>
<path d="M0 0 C0.66 0 1.32 0 2 0 C1.60196439 2.88575819 1.20990931 3.82189513 -1.0625 5.75 C-1.701875 6.1625 -2.34125 6.575 -3 7 C-3.33 5.35 -3.66 3.7 -4 2 C-2.68 2 -1.36 2 0 2 C0 1.34 0 0.68 0 0 Z " fill="#5DB9B7" transform="translate(317,333)"/>
<path d="M0 0 C0.78375 0.33 1.5675 0.66 2.375 1 C4.84332497 2.11866511 4.84332497 2.11866511 7 2 C6.34 3.32 5.68 4.64 5 6 C4.67 5.34 4.34 4.68 4 4 C3.34 4 2.68 4 2 4 C1.67 4.66 1.34 5.32 1 6 C-0.0625 4.125 -0.0625 4.125 -1 2 C-0.67 1.34 -0.34 0.68 0 0 Z " fill="#3BB0B0" transform="translate(315,329)"/>
<path d="M0 0 C1.32 0.33 2.64 0.66 4 1 C4 3.64 4 6.28 4 9 C2.01388388 7.01388388 1.08545288 5.55856751 0 3 C0 2.01 0 1.02 0 0 Z " fill="#29A5A0" transform="translate(138,200)"/>
<path d="M0 0 C3.26023324 0.22484367 4.93132641 0.5260489 7.625 2.25 C-0.80357143 3.53571429 -0.80357143 3.53571429 -5.375 2.25 C-3.375 0.25 -3.375 0.25 0 0 Z " fill="#249C9B" transform="translate(167.375,150.75)"/>
<path d="M0 0 C2.875 -0.125 2.875 -0.125 6 0 C6.66 0.66 7.32 1.32 8 2 C7 3 7 3 3.9375 3.0625 C2.968125 3.041875 1.99875 3.02125 1 3 C0.67 2.01 0.34 1.02 0 0 Z M-1 3 C1 4 1 4 1 4 Z " fill="#24A5A3" transform="translate(174,84)"/>
<path d="M0 0 C1.43088528 2.86177057 0.59991697 4.93375773 0 8 C-0.99 8 -1.98 8 -3 8 C-3.33 8.66 -3.66 9.32 -4 10 C-3.5205537 5.78087253 -2.83374881 3.20336822 0 0 Z " fill="#56B8B6" transform="translate(66,365)"/>
<path d="M0 0 C0 0.99 0 1.98 0 3 C-2.64 3 -5.28 3 -8 3 C-8 2.34 -8 1.68 -8 1 C-5.10765685 0.17361624 -3.11257569 0 0 0 Z " fill="#25A1A1" transform="translate(247,316)"/>
<path d="M0 0 C1.9375 0.3125 1.9375 0.3125 4 1 C4.33 1.99 4.66 2.98 5 4 C4.01 5.485 4.01 5.485 3 7 C2.34 6.67 1.68 6.34 1 6 C0.375 2.9375 0.375 2.9375 0 0 Z " fill="#26A0A3" transform="translate(277,153)"/>
<path d="M0 0 C0.33 1.65 0.66 3.3 1 5 C-1.64 4.67 -4.28 4.34 -7 4 C-6.01 3.67 -5.02 3.34 -4 3 C-4 2.34 -4 1.68 -4 1 C-2 0 -2 0 0 0 Z " fill="#38B0B1" transform="translate(357,122)"/>
<path d="M0 0 C0.66 1.32 1.32 2.64 2 4 C1.34 4 0.68 4 0 4 C0.33 4.99 0.66 5.98 1 7 C0.01 7.33 -0.98 7.66 -2 8 C-2 6.02 -2 4.04 -2 2 C-1.34 2 -0.68 2 0 2 C0 1.34 0 0.68 0 0 Z " fill="#249C92" transform="translate(196,357)"/>
<path d="M0 0 C0.144375 0.61875 0.28875 1.2375 0.4375 1.875 C0.93152225 4.03258322 0.93152225 4.03258322 2 6 C0.35 6.33 -1.3 6.66 -3 7 C-2.25 2.25 -2.25 2.25 0 0 Z " fill="#3EB4B6" transform="translate(136,322)"/>
<path d="M0 0 C4.67692308 1.47692308 4.67692308 1.47692308 6.3125 4.125 C6.539375 4.74375 6.76625 5.3625 7 6 C4 6 4 6 1.8125 4.125 C0 2 0 2 0 0 Z " fill="#45A7A5" transform="translate(273,312)"/>
<path d="M0 0 C2.475 0.495 2.475 0.495 5 1 C5 2.32 5 3.64 5 5 C3.68 4.67 2.36 4.34 1 4 C0.67 2.68 0.34 1.36 0 0 Z " fill="#1DA7A1" transform="translate(383,306)"/>
<path d="M0 0 C0.66 0 1.32 0 2 0 C2.66 1.65 3.32 3.3 4 5 C2.02 5.99 2.02 5.99 0 7 C-0.38133299 5.0085944 -0.71325582 3.00720923 -1 1 C-0.67 0.67 -0.34 0.34 0 0 Z " fill="#49B7B8" transform="translate(355,296)"/>
<path d="M0 0 C3.63 0.33 7.26 0.66 11 1 C11 1.33 11 1.66 11 2 C7.37 2.66 3.74 3.32 0 4 C0 2.68 0 1.36 0 0 Z " fill="#72C3C2" transform="translate(372,285)"/>
<path d="M0 0 C-0.33 2.64 -0.66 5.28 -1 8 C-2.5625 6.75 -2.5625 6.75 -4 5 C-3.8125 2.875 -3.8125 2.875 -3 1 C-1 0 -1 0 0 0 Z " fill="#3FB1B2" transform="translate(150,120)"/>
<path d="M0 0 C0.33 0 0.66 0 1 0 C1.1875 2.875 1.1875 2.875 1 6 C0.01 6.66 -0.98 7.32 -2 8 C-3.125 4.25 -3.125 4.25 -2 2 C-1.34 2 -0.68 2 0 2 C0 1.34 0 0.68 0 0 Z " fill="#47B3B2" transform="translate(287,41)"/>
<path d="M0 0 C0.66 0.33 1.32 0.66 2 1 C1 3 1 3 -2.4375 4.1875 C-6 5 -6 5 -8 4 C-6.71349294 3.30289269 -5.42059335 2.61757124 -4.125 1.9375 C-3.40570313 1.55464844 -2.68640625 1.17179687 -1.9453125 0.77734375 C-1.30335938 0.52082031 -0.66140625 0.26429687 0 0 Z " fill="#55B7B9" transform="translate(305,28)"/>
<path d="M0 0 C0.66 0.33 1.32 0.66 2 1 C2 2.65 2 4.3 2 6 C1.01 5.67 0.02 5.34 -1 5 C-1 4.34 -1 3.68 -1 3 C-1.66 2.67 -2.32 2.34 -3 2 C-2.01 1.34 -1.02 0.68 0 0 Z " fill="#24A8A3" transform="translate(85,360)"/>
<path d="M0 0 C0.66 0.33 1.32 0.66 2 1 C1.34 2.65 0.68 4.3 0 6 C-1.65 6 -3.3 6 -5 6 C-5 5.34 -5 4.68 -5 4 C-3.37373596 2.61767557 -1.7074998 1.28062485 0 0 Z " fill="#4EB8B5" transform="translate(408,338)"/>
<path d="M0 0 C0.99 0.33 1.98 0.66 3 1 C1.87926138 1.83905565 0.75325453 2.67107831 -0.375 3.5 C-1.00148438 3.9640625 -1.62796875 4.428125 -2.2734375 4.90625 C-4 6 -4 6 -6 6 C-5.67 5.01 -5.34 4.02 -5 3 C-4.01 3 -3.02 3 -2 3 C-2 2.34 -2 1.68 -2 1 C-1.34 0.67 -0.68 0.34 0 0 Z " fill="#77C3C3" transform="translate(120,334)"/>
<path d="M0 0 C0.99 0.33 1.98 0.66 3 1 C3 3.31 3 5.62 3 8 C2.01 8.495 2.01 8.495 1 9 C0.67 6.03 0.34 3.06 0 0 Z " fill="#28A29E" transform="translate(426,311)"/>
<path d="M0 0 C1.32 0 2.64 0 4 0 C3.1875 1.9375 3.1875 1.9375 2 4 C1.01 4.33 0.02 4.66 -1 5 C-0.67 3.35 -0.34 1.7 0 0 Z " fill="#48AFAB" transform="translate(129,197)"/>
<path d="M0 0 C2 2 2 2 2 5 C2.99 5.33 3.98 5.66 5 6 C4.34 6.66 3.68 7.32 3 8 C2.34 6.68 1.68 5.36 1 4 C0.34 4 -0.32 4 -1 4 C-1.33 3.01 -1.66 2.02 -2 1 C-1.34 0.67 -0.68 0.34 0 0 Z " fill="#6BBCBB" transform="translate(286,84)"/>
<path d="M0 0 C0.33 0.99 0.66 1.98 1 3 C-2.13349732 4.04449911 -2.98968256 3.93423645 -6 3 C-6 2.34 -6 1.68 -6 1 C-4 0 -4 0 0 0 Z " fill="#40A9A9" transform="translate(158,84)"/>
<path d="M0 0 C0.33 0.99 0.66 1.98 1 3 C-0.32 4.32 -1.64 5.64 -3 7 C-3.99 6.67 -4.98 6.34 -6 6 C-4.625 4.5 -4.625 4.5 -3 3 C-2.34 3 -1.68 3 -1 3 C-0.67 2.01 -0.34 1.02 0 0 Z " fill="#4CA9A8" transform="translate(132,448)"/>
<path d="M0 0 C1.65 0 3.3 0 5 0 C5 0.66 5 1.32 5 2 C3.7934375 2.433125 3.7934375 2.433125 2.5625 2.875 C-0.1326468 3.73262568 -0.1326468 3.73262568 -1 6 C-0.67 4.02 -0.34 2.04 0 0 Z " fill="#48AFAB" transform="translate(367,386)"/>
<path d="M0 0 C0.99 0.33 1.98 0.66 3 1 C1.63016497 4.16115776 1.0109362 4.9927092 -2 7 C-2.33 6.01 -2.66 5.02 -3 4 C-2.01 4 -1.02 4 0 4 C0 2.68 0 1.36 0 0 Z " fill="#49B3B0" transform="translate(308,340)"/>
<path d="M0 0 C0.66 0 1.32 0 2 0 C1.625 2.4375 1.625 2.4375 1 5 C0.01 5.495 0.01 5.495 -1 6 C-1.66 5.34 -2.32 4.68 -3 4 C-1.625 2 -1.625 2 0 0 Z " fill="#1DA9A9" transform="translate(429,320)"/>
<path d="M0 0 C0.66 0 1.32 0 2 0 C3.4783226 2.95664519 3.06032783 5.74229737 3 9 C2.67 7.68 2.34 6.36 2 5 C1.34 5 0.68 5 0 5 C0 3.35 0 1.7 0 0 Z " fill="#43ACA6" transform="translate(437,305)"/>
<path d="M0 0 C0.33 0.99 0.66 1.98 1 3 C-0.32 3.33 -1.64 3.66 -3 4 C-3 4.66 -3 5.32 -3 6 C-4.32 6.33 -5.64 6.66 -7 7 C-6.67 6.34 -6.34 5.68 -6 5 C-5.34 5 -4.68 5 -4 5 C-4 4.34 -4 3.68 -4 3 C-3.34 3 -2.68 3 -2 3 C-2 2.34 -2 1.68 -2 1 C-1.34 0.67 -0.68 0.34 0 0 Z " fill="#6EC1C2" transform="translate(356,280)"/>
<path d="M0 0 C2.31 0 4.62 0 7 0 C4.37801226 2.15377564 2.35595828 3.40072174 -1 4 C-0.67 2.68 -0.34 1.36 0 0 Z " fill="#5CBAB7" transform="translate(182,147)"/>
<path d="M0 0 C0.33 0 0.66 0 1 0 C1.36923077 5.53846154 1.36923077 5.53846154 -0.5 7.875 C-1.2425 8.431875 -1.2425 8.431875 -2 9 C-2.25 3.375 -2.25 3.375 0 0 Z " fill="#4BB2AF" transform="translate(248,129)"/>
<path d="M0 0 C3.77545388 1.09068668 6.47043472 1.9083091 9 5 C6.03 4.505 6.03 4.505 3 4 C3 3.34 3 2.68 3 2 C2.01 2 1.02 2 0 2 C0 1.34 0 0.68 0 0 Z " fill="#70C4C7" transform="translate(364,113)"/>
<path d="" fill="#FFFFFF" transform="translate(0,0)"/>
<path d="" fill="#FFFFFF" transform="translate(0,0)"/>
<path d="" fill="#FFFFFF" transform="translate(0,0)"/>
<path d="" fill="#FFFFFF" transform="translate(0,0)"/>
<path d="" fill="#FFFFFF" transform="translate(0,0)"/>
<path d="" fill="#FFFFFF" transform="translate(0,0)"/>
<path d="" fill="#FFFFFF" transform="translate(0,0)"/>
<path d="" fill="#FFFFFF" transform="translate(0,0)"/>
<path d="" fill="#FFFFFF" transform="translate(0,0)"/>
<path d="" fill="#FFFFFF" transform="translate(0,0)"/>
<path d="" fill="#FFFFFF" transform="translate(0,0)"/>
<path d="" fill="#FFFFFF" transform="translate(0,0)"/>
<path d="" fill="#FFFFFF" transform="translate(0,0)"/>
<path d="" fill="#FFFFFF" transform="translate(0,0)"/>
<path d="" fill="#FFFFFF" transform="translate(0,0)"/>
<path d="" fill="#FFFFFF" transform="translate(0,0)"/>
<path d="" fill="#FFFFFF" transform="translate(0,0)"/>
<path d="" fill="#FFFFFF" transform="translate(0,0)"/>
<path d="" fill="#FFFFFF" transform="translate(0,0)"/>
<path d="" fill="#FFFFFF" transform="translate(0,0)"/>
<path d="" fill="#FFFFFF" transform="translate(0,0)"/>
<path d="" fill="#FFFFFF" transform="translate(0,0)"/>
<path d="" fill="#FFFFFF" transform="translate(0,0)"/>
<path d="" fill="#FFFFFF" transform="translate(0,0)"/>
<path d="" fill="#FFFFFF" transform="translate(0,0)"/>
<path d="" fill="#FFFFFF" transform="translate(0,0)"/>
<path d="" fill="#FFFFFF" transform="translate(0,0)"/>
<path d="" fill="#FFFFFF" transform="translate(0,0)"/>
<path d="" fill="#FFFFFF" transform="translate(0,0)"/>
<path d="" fill="#FFFFFF" transform="translate(0,0)"/>
<path d="" fill="#FFFFFF" transform="translate(0,0)"/>
<path d="" fill="#FFFFFF" transform="translate(0,0)"/>
<path d="" fill="#FFFFFF" transform="translate(0,0)"/>
<path d="" fill="#FFFFFF" transform="translate(0,0)"/>
<path d="" fill="#FFFFFF" transform="translate(0,0)"/>
<path d="" fill="#FFFFFF" transform="translate(0,0)"/>
<path d="" fill="#FFFFFF" transform="translate(0,0)"/>
<path d="" fill="#FFFFFF" transform="translate(0,0)"/>
<path d="" fill="#FFFFFF" transform="translate(0,0)"/>
<path d="" fill="#FFFFFF" transform="translate(0,0)"/>
<path d="" fill="#FFFFFF" transform="translate(0,0)"/>
<path d="" fill="#FFFFFF" transform="translate(0,0)"/>
<path d="" fill="#FFFFFF" transform="translate(0,0)"/>
<path d="" fill="#FFFFFF" transform="translate(0,0)"/>
<path d="" fill="#FFFFFF" transform="translate(0,0)"/>
<path d="" fill="#FFFFFF" transform="translate(0,0)"/>
<path d="" fill="#FFFFFF" transform="translate(0,0)"/>
<path d="" fill="#FFFFFF" transform="translate(0,0)"/>
<path d="" fill="#FFFFFF" transform="translate(0,0)"/>
<path d="" fill="#FFFFFF" transform="translate(0,0)"/>
<path d="" fill="#FFFFFF" transform="translate(0,0)"/>
<path d="" fill="#FFFFFF" transform="translate(0,0)"/>
<path d="" fill="#FFFFFF" transform="translate(0,0)"/>
<path d="" fill="#FFFFFF" transform="translate(0,0)"/>
<path d="" fill="#FFFFFF" transform="translate(0,0)"/>
<path d="" fill="#FFFFFF" transform="translate(0,0)"/>
<path d="" fill="#FFFFFF" transform="translate(0,0)"/>
<path d="" fill="#FFFFFF" transform="translate(0,0)"/>
<path d="" fill="#FFFFFF" transform="translate(0,0)"/>
<path d="" fill="#FFFFFF" transform="translate(0,0)"/>
<path d="" fill="#FFFFFF" transform="translate(0,0)"/>
<path d="" fill="#FFFFFF" transform="translate(0,0)"/>
<path d="" fill="#FFFFFF" transform="translate(0,0)"/>
<path d="" fill="#FFFFFF" transform="translate(0,0)"/>
<path d="" fill="#FFFFFF" transform="translate(0,0)"/>
<path d="" fill="#FFFFFF" transform="translate(0,0)"/>
<path d="" fill="#FFFFFF" transform="translate(0,0)"/>
</svg>
